<svg xmlns="http://www.w3.org/2000/svg" viewBox="0 0 900 300" role="img" aria-label="An alarm light flashing and a meter swinging into the red">
<title>An alarm light flashing and a meter swinging into the red</title>
<defs><radialGradient id="cal-glow" cx="50%" cy="50%" r="50%"><stop offset="0" stop-color="#e6dccb"/><stop offset=".6" stop-color="#e6dccb" stop-opacity=".75"/><stop offset="1" stop-color="#e6dccb" stop-opacity="0"/></radialGradient></defs><ellipse cx="450" cy="150" rx="432" ry="150" fill="url(#cal-glow)"/><path d="M27 262H873" stroke="#141216" stroke-width="2.6" stroke-linecap="round"/><path d="M41 267l-7 9M52 267l-7 9M63 267l-7 9M74 267l-7 9M85 267l-7 9M96 267l-7 9M107 267l-7 9M118 267l-7 9M129 267l-7 9M140 267l-7 9M151 267l-7 9M162 267l-7 9M173 267l-7 9M184 267l-7 9M195 267l-7 9M206 267l-7 9M217 267l-7 9M228 267l-7 9M239 267l-7 9M250 267l-7 9M261 267l-7 9M272 267l-7 9M283 267l-7 9M294 267l-7 9M305 267l-7 9M316 267l-7 9M327 267l-7 9M338 267l-7 9M349 267l-7 9M360 267l-7 9M371 267l-7 9M382 267l-7 9M393 267l-7 9M404 267l-7 9M415 267l-7 9M426 267l-7 9M437 267l-7 9M448 267l-7 9M459 267l-7 9M470 267l-7 9M481 267l-7 9M492 267l-7 9M503 267l-7 9M514 267l-7 9M525 267l-7 9M536 267l-7 9M547 267l-7 9M558 267l-7 9M569 267l-7 9M580 267l-7 9M591 267l-7 9M602 267l-7 9M613 267l-7 9M624 267l-7 9M635 267l-7 9M646 267l-7 9M657 267l-7 9M668 267l-7 9M679 267l-7 9M690 267l-7 9M701 267l-7 9M712 267l-7 9M723 267l-7 9M734 267l-7 9M745 267l-7 9M756 267l-7 9M767 267l-7 9M778 267l-7 9M789 267l-7 9M800 267l-7 9M811 267l-7 9M822 267l-7 9M833 267l-7 9M844 267l-7 9M855 267l-7 9M866 267l-7 9" stroke="#141216" stroke-width="1.3" opacity=".3"/><defs><radialGradient id="cal-r"><stop offset="0" stop-color="#d13a2f" stop-opacity=".55"/><stop offset="1" stop-color="#d13a2f" stop-opacity="0"/></radialGradient></defs><ellipse cx="220" cy="150" rx="150" ry="110" fill="url(#cal-r)"/><defs><linearGradient id="cal-bl" x1="1" y1="0" x2="0" y2="0"><stop offset="0" stop-color="#d13a2f" stop-opacity=".3"/><stop offset="1" stop-color="#d13a2f" stop-opacity="0"/></linearGradient><linearGradient id="cal-br" x1="0" y1="0" x2="1" y2="0"><stop offset="0" stop-color="#d13a2f" stop-opacity=".3"/><stop offset="1" stop-color="#d13a2f" stop-opacity="0"/></linearGradient></defs><path d="M220 150L40 72L40 152z" fill="url(#cal-bl)"/><path d="M220 150L420 84L420 178z" fill="url(#cal-br)"/><rect x="176" y="226" width="88" height="36" rx="4" fill="#141216" stroke="#141216" stroke-width="3"/><path d="M184 226v-60a36 36 0 0 1 72 0v60z" fill="#d13a2f" stroke="#141216" stroke-width="3.2"/><path d="M184 192h72M184 210h72" stroke="#8f1d1d" stroke-width="2.4" fill="none" stroke-linecap="round" stroke-linejoin="round"/><rect x="208" y="154" width="24" height="56" rx="6" fill="#f0cf6b" stroke="#141216" stroke-width="2.4"/><path d="M196 162q4 -20 18 -26" stroke="#f3eee4" stroke-width="4" fill="none" stroke-linecap="round" opacity=".8"/><path d="M150 90l-16 -14M220 72v-22M290 90l16 -14M138 140h-22M302 140h22" stroke="#d13a2f" stroke-width="4" fill="none" stroke-linecap="round" stroke-linejoin="round"/><path d="M452 262V250A148 148 0 0 1 748 250V262z" fill="#36343a" stroke="#141216" stroke-width="3.2"/><path d="M464 250A136 136 0 0 1 736 250z" fill="#f3eee4" stroke="#141216" stroke-width="2.4"/><path d="M493.4 231.2A108.24 108.24 0 0 1 545.9 156.3" stroke="#2f7d4f" stroke-width="23.8" fill="none"/><path d="M545.9 156.3A108.24 108.24 0 0 1 637 148.3" stroke="#b8892a" stroke-width="23.8" fill="none"/><path d="M637 148.3A108.24 108.24 0 0 1 688.7 187.9" stroke="#d13a2f" stroke-width="23.8" fill="none"/><path d="M688.7 187.9A108.24 108.24 0 0 1 706.6 231.2" stroke="#8f1d1d" stroke-width="23.8" fill="none"/><path d="M519.4 235.8L509 234M526.4 214.1L517 209.5M539.2 195.2L531.3 188.2M556.6 180.6L551 171.6M577.4 171.3L574.5 161.2M600 168.2L600 157.6M622.6 171.3L625.5 161.2M643.4 180.6L649 171.6M660.8 195.2L668.7 188.2M673.6 214.1L683 209.5M680.6 235.8L691 234" stroke="#141216" stroke-width="2.4" fill="none" stroke-linecap="round" stroke-linejoin="round"/><path d="M600 250L521.1 183.8" stroke="#141216" stroke-width="3" fill="none" stroke-linecap="round" stroke-linejoin="round" opacity=".18"/><path d="M600 250L582.1 148.6" stroke="#141216" stroke-width="3" fill="none" stroke-linecap="round" stroke-linejoin="round" opacity=".18"/><path d="M600 250L651.5 160.8" stroke="#141216" stroke-width="3" fill="none" stroke-linecap="round" stroke-linejoin="round" opacity=".18"/><path d="M591 254.4L699.7 201.4" stroke="#141216" stroke-width="6" fill="none" stroke-linecap="round" stroke-linejoin="round"/><path d="M600 250L694.9 203.7" stroke="#d13a2f" stroke-width="2.4" fill="none" stroke-linecap="round" stroke-linejoin="round"/><circle cx="600" cy="250" r="9" fill="#b8892a" stroke="#141216" stroke-width="2.6"/><path d="M520 144q30 -50 100 -46" stroke="#141216" stroke-width="2.4" fill="none" stroke-linecap="round" stroke-linejoin="round" stroke-dasharray="3 7" opacity=".6"/><path d="M620 98l-12 -8 2 14z" fill="#141216" opacity=".6"/><ellipse cx="776" cy="262" rx="62" ry="6" fill="#141216" opacity="0.18"/><g transform="translate(776 228.2) scale(1.3 1.3)">
<path d="M9 -6L20 -24L21.4 3.5L17 26M12 -2L34 -22L38.1 4.4L36 26M13 3L46 -12L53.4 8.9L54 26M10 7L48 -2L59.8 13.4L64 26M-9 -6L-24 -18L-32.5 -12.5L-34 -8M-12 -2L-30 -6L-37.4 0.6L-38 6M-13 3L-46 -12L-53.4 8.9L-54 26M-10 7L-48 -2L-59.8 13.4L-64 26" stroke="#141216" stroke-width="4.4" fill="none" stroke-linecap="round" stroke-linejoin="round"/>
<path d="M9 -6L20 -24L21.4 3.5L17 26M12 -2L34 -22L38.1 4.4L36 26M13 3L46 -12L53.4 8.9L54 26M10 7L48 -2L59.8 13.4L64 26M-9 -6L-24 -18L-32.5 -12.5L-34 -8M-12 -2L-30 -6L-37.4 0.6L-38 6M-13 3L-46 -12L-53.4 8.9L-54 26M-10 7L-48 -2L-59.8 13.4L-64 26" stroke="#36343a" stroke-width="2.2" fill="none" stroke-linecap="round" stroke-linejoin="round"/>
<ellipse cx="0" cy="-22" rx="19" ry="17" fill="#36343a" stroke="#141216" stroke-width="2.2"/>
<ellipse cx="-6.6" cy="-28.8" rx="7.2" ry="4.4" fill="#5a5660" transform="rotate(-25 -6.6 -28.8)"/>
<g fill="#f0cf6b"><circle cx="-6" cy="-25" r="2.2"/><circle cx="6" cy="-25" r="2.2"/><circle cx="-4" cy="-16" r="1.8"/><circle cx="4" cy="-16" r="1.8"/></g>
<ellipse cx="0" cy="0" rx="14.5" ry="12.5" fill="#36343a" stroke="#141216" stroke-width="2.2"/>
<path d="M-8 -8q8 -5 16 0" stroke="#5a5660" stroke-width="2" fill="none" stroke-linecap="round"/>
<path d="M-4.5 10.5q-1.5 4 0.5 5.5M4.5 10.5q1.5 4 -0.5 5.5" stroke="#141216" stroke-width="3.2" fill="none" stroke-linecap="round"/>
<circle cx="-10.8" cy="-5.2" r="1.6" fill="#141216"/><circle cx="-10.3" cy="-5.7" r="0.6" fill="#f0cf6b"/><circle cx="10.8" cy="-5.2" r="1.6" fill="#141216"/><circle cx="11.3" cy="-5.7" r="0.6" fill="#f0cf6b"/><circle cx="-3.2" cy="-8.6" r="1.2" fill="#141216"/><circle cx="-2.8" cy="-9" r="0.5" fill="#f0cf6b"/><circle cx="3.2" cy="-8.6" r="1.2" fill="#141216"/><circle cx="3.6" cy="-9" r="0.5" fill="#f0cf6b"/>
<circle cx="-5.6" cy="-0.2" r="5.1" fill="#f3eee4" stroke="#141216" stroke-width="1.3"/><circle cx="-7.4" cy="-0.9" r="3" fill="#141216"/><circle cx="-6.3" cy="-2.2" r="1.2" fill="#f0cf6b"/><circle cx="5.6" cy="-0.2" r="5.1" fill="#f3eee4" stroke="#141216" stroke-width="1.3"/><circle cx="3.8" cy="-0.9" r="3" fill="#141216"/><circle cx="4.9" cy="-2.2" r="1.2" fill="#f0cf6b"/><path d="M-10 -6l7 -2.6M10 -6l-7 -2.6" stroke="#141216" stroke-width="1.8" stroke-linecap="round"/><path d="M-3.6 9q1.2-2 2.4 0t2.4 0 2.4 0" stroke="#141216" stroke-width="1.3" fill="none" stroke-linecap="round"/></g><path d="M800 212q4 8 0 12q-4 -4 0 -12z" fill="#f3eee4" stroke="#141216" stroke-width="1.4"/>
</svg>
