<svg xmlns="http://www.w3.org/2000/svg" viewBox="0 0 900 300" role="img" aria-label="Gadgets: a paperclip grappling hook, a bottle-cap shield and a rubber band">
<title>Gadgets: a paperclip grappling hook, a bottle-cap shield and a rubber band</title>
<defs><radialGradient id="cgd-glow" cx="50%" cy="50%" r="50%"><stop offset="0" stop-color="#e6dccb"/><stop offset=".6" stop-color="#e6dccb" stop-opacity=".75"/><stop offset="1" stop-color="#e6dccb" stop-opacity="0"/></radialGradient></defs><ellipse cx="450" cy="150" rx="432" ry="150" fill="url(#cgd-glow)"/><path d="M90 262H810" stroke="#141216" stroke-width="2.6" stroke-linecap="round"/><path d="M104 267l-7 9M115 267l-7 9M126 267l-7 9M137 267l-7 9M148 267l-7 9M159 267l-7 9M170 267l-7 9M181 267l-7 9M192 267l-7 9M203 267l-7 9M214 267l-7 9M225 267l-7 9M236 267l-7 9M247 267l-7 9M258 267l-7 9M269 267l-7 9M280 267l-7 9M291 267l-7 9M302 267l-7 9M313 267l-7 9M324 267l-7 9M335 267l-7 9M346 267l-7 9M357 267l-7 9M368 267l-7 9M379 267l-7 9M390 267l-7 9M401 267l-7 9M412 267l-7 9M423 267l-7 9M434 267l-7 9M445 267l-7 9M456 267l-7 9M467 267l-7 9M478 267l-7 9M489 267l-7 9M500 267l-7 9M511 267l-7 9M522 267l-7 9M533 267l-7 9M544 267l-7 9M555 267l-7 9M566 267l-7 9M577 267l-7 9M588 267l-7 9M599 267l-7 9M610 267l-7 9M621 267l-7 9M632 267l-7 9M643 267l-7 9M654 267l-7 9M665 267l-7 9M676 267l-7 9M687 267l-7 9M698 267l-7 9M709 267l-7 9M720 267l-7 9M731 267l-7 9M742 267l-7 9M753 267l-7 9M764 267l-7 9M775 267l-7 9M786 267l-7 9M797 267l-7 9" stroke="#141216" stroke-width="1.3" opacity=".3"/><path d="M190 0V58" stroke="#b8892a" stroke-width="2.4" fill="none" stroke-linecap="round" stroke-linejoin="round"/><g transform="translate(190 150) scale(1.4)"><path d="M0 -60V10q0 14 -12 14q-14 0 -14 -16v-8M0 10q0 14 12 14q14 0 14 -16v-8M0 10v16q0 10 -6 10" stroke="#141216" stroke-width="8" fill="none" stroke-linecap="round" stroke-linejoin="round"/><path d="M0 -60V10q0 14 -12 14q-14 0 -14 -16v-8M0 10q0 14 12 14q14 0 14 -16v-8M0 10v16q0 10 -6 10" stroke="#cdbfa4" stroke-width="4.5" fill="none" stroke-linecap="round" stroke-linejoin="round"/><path d="M-2 -50v50" stroke="#f3eee4" stroke-width="1.5" fill="none" stroke-linecap="round" stroke-linejoin="round"/><circle cx="0" cy="-62" r="5" fill="none" stroke="#141216" stroke-width="3"/></g><ellipse cx="190" cy="262" rx="40" ry="5" fill="#141216" opacity="0.18"/><ellipse cx="446" cy="262" rx="76" ry="7" fill="#141216" opacity="0.18"/><g transform="translate(420 230.8) scale(1.2 1.2)">
<path d="M9 -6L26 -10L38.9 -7.8L44 -6M12 -2L30 6L41.8 7.1L46 8M13 3L46 -12L53.4 8.9L54 26M10 7L48 -2L59.8 13.4L64 26M-9 -6L-20 -24L-21.3 3.5L-17 26M-12 -2L-34 -22L-38.1 4.4L-36 26M-13 3L-46 -12L-53.4 8.9L-54 26M-10 7L-48 -2L-59.8 13.4L-64 26" stroke="#141216" stroke-width="4.4" fill="none" stroke-linecap="round" stroke-linejoin="round"/>
<path d="M9 -6L26 -10L38.9 -7.8L44 -6M12 -2L30 6L41.8 7.1L46 8M13 3L46 -12L53.4 8.9L54 26M10 7L48 -2L59.8 13.4L64 26M-9 -6L-20 -24L-21.3 3.5L-17 26M-12 -2L-34 -22L-38.1 4.4L-36 26M-13 3L-46 -12L-53.4 8.9L-54 26M-10 7L-48 -2L-59.8 13.4L-64 26" stroke="#36343a" stroke-width="2.2" fill="none" stroke-linecap="round" stroke-linejoin="round"/>
<ellipse cx="0" cy="-22" rx="19" ry="17" fill="#36343a" stroke="#141216" stroke-width="2.2"/>
<ellipse cx="-6.6" cy="-28.8" rx="7.2" ry="4.4" fill="#5a5660" transform="rotate(-25 -6.6 -28.8)"/>
<g fill="#f0cf6b"><circle cx="-6" cy="-25" r="2.2"/><circle cx="6" cy="-25" r="2.2"/><circle cx="-4" cy="-16" r="1.8"/><circle cx="4" cy="-16" r="1.8"/></g>
<ellipse cx="0" cy="0" rx="14.5" ry="12.5" fill="#36343a" stroke="#141216" stroke-width="2.2"/>
<path d="M-8 -8q8 -5 16 0" stroke="#5a5660" stroke-width="2" fill="none" stroke-linecap="round"/>
<path d="M-4.5 10.5q-1.5 4 0.5 5.5M4.5 10.5q1.5 4 -0.5 5.5" stroke="#141216" stroke-width="3.2" fill="none" stroke-linecap="round"/>
<circle cx="-10.8" cy="-5.2" r="1.6" fill="#141216"/><circle cx="-10.3" cy="-5.7" r="0.6" fill="#f0cf6b"/><circle cx="10.8" cy="-5.2" r="1.6" fill="#141216"/><circle cx="11.3" cy="-5.7" r="0.6" fill="#f0cf6b"/><circle cx="-3.2" cy="-8.6" r="1.2" fill="#141216"/><circle cx="-2.8" cy="-9" r="0.5" fill="#f0cf6b"/><circle cx="3.2" cy="-8.6" r="1.2" fill="#141216"/><circle cx="3.6" cy="-9" r="0.5" fill="#f0cf6b"/>
<circle cx="-5.6" cy="-0.2" r="5.1" fill="#f3eee4" stroke="#141216" stroke-width="1.3"/><circle cx="-3.8" cy="-0.6" r="3" fill="#141216"/><circle cx="-2.7" cy="-1.8" r="1.2" fill="#f0cf6b"/><circle cx="5.6" cy="-0.2" r="5.1" fill="#f3eee4" stroke="#141216" stroke-width="1.3"/><circle cx="7.4" cy="-0.6" r="3" fill="#141216"/><circle cx="8.5" cy="-1.8" r="1.2" fill="#f0cf6b"/><path d="M-10 -7.8l7 2.2M10 -7.8l-7 2.2" stroke="#141216" stroke-width="1.8" stroke-linecap="round"/><path d="M-3.5 7.2q3.5 3 7 0" stroke="#141216" stroke-width="1.4" fill="none" stroke-linecap="round"/><path d="M-14 -10h28" stroke="#141216" stroke-width="2.4"/><circle cx="-6" cy="-11" r="4.2" fill="#f0cf6b" stroke="#141216" stroke-width="1.8"/><circle cx="6" cy="-11" r="4.2" fill="#f0cf6b" stroke="#141216" stroke-width="1.8"/></g><ellipse cx="478" cy="204" rx="18" ry="50" fill="#8f1d1d" stroke="#141216" stroke-width="3"/><ellipse cx="486" cy="204" rx="13" ry="45" fill="#d13a2f" stroke="#141216" stroke-width="3"/><path d="M466.2 164l-6 3M463.6 174l-6 3M462.1 184l-6 3M461.3 194l-6 3M461 204l-6 3M461.3 214l-6 3M462.1 224l-6 3M463.6 234l-6 3M466.2 244l-6 3" stroke="#141216" stroke-width="2" fill="none" stroke-linecap="round" stroke-linejoin="round"/><ellipse cx="488" cy="204" rx="6" ry="24" fill="none" stroke="#f0cf6b" stroke-width="3"/><path d="M500 153Q501.8 158.2 507 160Q501.8 161.8 500 167Q498.2 161.8 493 160Q498.2 158.2 500 153z" fill="#f0cf6b" stroke="#141216" stroke-width="0.9" stroke-linejoin="round"/><ellipse cx="720" cy="262" rx="90" ry="7" fill="#141216" opacity="0.18"/><path d="M640 262V132M800 262V132" stroke="#141216" stroke-width="12" stroke-linecap="round"/><path d="M640 262V132M800 262V132" stroke="#b8892a" stroke-width="7" stroke-linecap="round"/><circle cx="640" cy="128" r="9" fill="#d13a2f" stroke="#141216" stroke-width="2.6"/><circle cx="800" cy="128" r="9" fill="#d13a2f" stroke="#141216" stroke-width="2.6"/><g transform="translate(720 230.8) scale(1.2 1.2)">
<path d="M9 -6L22 -24L17.9 -27.3L9 -30M12 -2L34 -22L38.1 4.4L36 26M13 3L46 -12L53.4 8.9L54 26M10 7L48 -2L59.8 13.4L64 26M-9 -6L-22 -24L-17.8 -27.3L-9 -30M-12 -2L-34 -22L-38.1 4.4L-36 26M-13 3L-46 -12L-53.4 8.9L-54 26M-10 7L-48 -2L-59.8 13.4L-64 26" stroke="#141216" stroke-width="4.4" fill="none" stroke-linecap="round" stroke-linejoin="round"/>
<path d="M9 -6L22 -24L17.9 -27.3L9 -30M12 -2L34 -22L38.1 4.4L36 26M13 3L46 -12L53.4 8.9L54 26M10 7L48 -2L59.8 13.4L64 26M-9 -6L-22 -24L-17.8 -27.3L-9 -30M-12 -2L-34 -22L-38.1 4.4L-36 26M-13 3L-46 -12L-53.4 8.9L-54 26M-10 7L-48 -2L-59.8 13.4L-64 26" stroke="#36343a" stroke-width="2.2" fill="none" stroke-linecap="round" stroke-linejoin="round"/>
<ellipse cx="0" cy="-22" rx="19" ry="17" fill="#36343a" stroke="#141216" stroke-width="2.2"/>
<ellipse cx="-6.6" cy="-28.8" rx="7.2" ry="4.4" fill="#5a5660" transform="rotate(-25 -6.6 -28.8)"/>
<path d="M-14 -24q14 -6 28 0M-13 -16q13 -5 26 0" stroke="#f0cf6b" stroke-width="2.2" fill="none" stroke-linecap="round"/>
<ellipse cx="0" cy="0" rx="14.5" ry="12.5" fill="#36343a" stroke="#141216" stroke-width="2.2"/>
<path d="M-8 -8q8 -5 16 0" stroke="#5a5660" stroke-width="2" fill="none" stroke-linecap="round"/>
<path d="M-4.5 10.5q-1.5 4 0.5 5.5M4.5 10.5q1.5 4 -0.5 5.5" stroke="#141216" stroke-width="3.2" fill="none" stroke-linecap="round"/>
<circle cx="-10.8" cy="-5.2" r="1.6" fill="#141216"/><circle cx="-10.3" cy="-5.7" r="0.6" fill="#f0cf6b"/><circle cx="10.8" cy="-5.2" r="1.6" fill="#141216"/><circle cx="11.3" cy="-5.7" r="0.6" fill="#f0cf6b"/><circle cx="-3.2" cy="-8.6" r="1.2" fill="#141216"/><circle cx="-2.8" cy="-9" r="0.5" fill="#f0cf6b"/><circle cx="3.2" cy="-8.6" r="1.2" fill="#141216"/><circle cx="3.6" cy="-9" r="0.5" fill="#f0cf6b"/>
<circle cx="-5.6" cy="-0.2" r="5.1" fill="#f3eee4" stroke="#141216" stroke-width="1.3"/><circle cx="-5.6" cy="-2" r="3" fill="#141216"/><circle cx="-4.5" cy="-3.3" r="1.2" fill="#f0cf6b"/><circle cx="5.6" cy="-0.2" r="5.1" fill="#f3eee4" stroke="#141216" stroke-width="1.3"/><circle cx="5.6" cy="-2" r="3" fill="#141216"/><circle cx="6.7" cy="-3.3" r="1.2" fill="#f0cf6b"/><path d="M-10 -7.8l7 2.2M10 -7.8l-7 2.2" stroke="#141216" stroke-width="1.8" stroke-linecap="round"/><path d="M-4.5 6.5q4.5 6 9 0z" fill="#141216"/><path d="M-2 9q2 1.6 4 0" stroke="#d13a2f" stroke-width="1.4" fill="none"/></g><path d="M640 132L712 196Q720 200 728 196L800 132" stroke="#141216" stroke-width="8" fill="none" stroke-linecap="round" stroke-linejoin="round"/><path d="M640 132L712 196Q720 200 728 196L800 132" stroke="#8f1d1d" stroke-width="4.5" fill="none" stroke-linecap="round" stroke-linejoin="round"/><circle cx="720" cy="189" r="10" fill="#b8892a" stroke="#141216" stroke-width="1.5"/><circle cx="717.2" cy="186" r="4" fill="#f0cf6b" opacity=".45"/><ellipse cx="720.4" cy="194.5" rx="1.3" ry="1.1" fill="#1f1d22"/><ellipse cx="713.9" cy="186.7" rx="1.3" ry="1.1" fill="#1f1d22"/><ellipse cx="725.1" cy="190.7" rx="1.3" ry="1.1" fill="#1f1d22"/><ellipse cx="723.3" cy="190.5" rx="1.3" ry="1.1" fill="#1f1d22"/><ellipse cx="713.8" cy="187.3" rx="1.3" ry="1.1" fill="#1f1d22"/><ellipse cx="716.5" cy="186" rx="1.3" ry="1.1" fill="#1f1d22"/><path d="M711 195l3 3M729 195l-3 3" stroke="#141216" stroke-width="4" fill="none" stroke-linecap="round" stroke-linejoin="round"/><path d="M690 112l-10 -12M720 104v-16M750 112l10 -12" stroke="#141216" stroke-width="2.6" fill="none" stroke-linecap="round" stroke-linejoin="round" opacity=".5"/><ellipse cx="300" cy="252" rx="36" ry="8" fill="none" stroke="#141216" stroke-width="7"/><ellipse cx="300" cy="252" rx="36" ry="8" fill="none" stroke="#8f1d1d" stroke-width="3.5"/>
</svg>
