<svg xmlns="http://www.w3.org/2000/svg" viewBox="0 0 900 300" role="img" aria-label="A spider counts squares across a grid">
<title>A spider counts squares across a grid</title>
<defs><radialGradient id="cg-glow" cx="50%" cy="50%" r="50%"><stop offset="0" stop-color="#eaddbe"/><stop offset=".6" stop-color="#eaddbe" stop-opacity=".75"/><stop offset="1" stop-color="#eaddbe" stop-opacity="0"/></radialGradient></defs><ellipse cx="450" cy="150" rx="432" ry="150" fill="url(#cg-glow)"/><path d="M86 276L196 104H716L826 276Z" fill="#2a1c30" opacity=".18"/><path d="M80 268L190 96H710L820 268Z" fill="#eaddbe" stroke="#2a1c30" stroke-width="3" stroke-linejoin="round"/><path d="M242 96L154 268M294 96L228 268M346 96L302 268M398 96L376 268M450 96L450 268M502 96L524 268M554 96L598 268M606 96L672 268M658 96L746 268M162.5 139L737.5 139M135 182L765 182M107.5 225L792.5 225" stroke="#2a1c30" stroke-width="1.6" fill="none" stroke-linecap="round" stroke-linejoin="round" opacity=".55"/><path d="M324 182L387 182L381.5 225L313 225Z" fill="#f0cf6b" opacity=".45"/><path d="M387 182L450 182L450 225L381.5 225Z" fill="#f0cf6b" opacity=".45"/><path d="M450 182L513 182L518.5 225L450 225Z" fill="#f0cf6b" opacity=".45"/><path d="M513 182L576 182L587 225L518.5 225Z" fill="#f0cf6b" opacity=".45"/><circle cx="351.4" cy="203.5" r="3.4" fill="#b8892a" stroke="#2a1c30" stroke-width="1.2"/><circle cx="412.1" cy="203.5" r="3.4" fill="#b8892a" stroke="#2a1c30" stroke-width="1.2"/><circle cx="422.1" cy="203.5" r="3.4" fill="#b8892a" stroke="#2a1c30" stroke-width="1.2"/><circle cx="472.9" cy="203.5" r="3.4" fill="#b8892a" stroke="#2a1c30" stroke-width="1.2"/><circle cx="482.9" cy="203.5" r="3.4" fill="#b8892a" stroke="#2a1c30" stroke-width="1.2"/><circle cx="492.9" cy="203.5" r="3.4" fill="#b8892a" stroke="#2a1c30" stroke-width="1.2"/><circle cx="533.6" cy="203.5" r="3.4" fill="#b8892a" stroke="#2a1c30" stroke-width="1.2"/><circle cx="543.6" cy="203.5" r="3.4" fill="#b8892a" stroke="#2a1c30" stroke-width="1.2"/><circle cx="553.6" cy="203.5" r="3.4" fill="#b8892a" stroke="#2a1c30" stroke-width="1.2"/><circle cx="563.6" cy="203.5" r="3.4" fill="#b8892a" stroke="#2a1c30" stroke-width="1.2"/><path d="M293.6 193.5Q318.5 159.5 343.4 193.5" stroke="#b8892a" stroke-width="2.2" fill="none" stroke-linecap="round" stroke-linejoin="round" stroke-dasharray="3 6"/><path d="M359.4 193.5Q384.3 159.5 409.1 193.5" stroke="#b8892a" stroke-width="2.2" fill="none" stroke-linecap="round" stroke-linejoin="round" stroke-dasharray="3 6"/><path d="M425.1 193.5Q450 159.5 474.9 193.5" stroke="#b8892a" stroke-width="2.2" fill="none" stroke-linecap="round" stroke-linejoin="round" stroke-dasharray="3 6"/><path d="M490.9 193.5Q515.8 159.5 540.6 193.5" stroke="#b8892a" stroke-width="2.2" fill="none" stroke-linecap="round" stroke-linejoin="round" stroke-dasharray="3 6"/><ellipse cx="660.9" cy="166.5" rx="20" ry="7" fill="#2a1c30" opacity=".25"/><path d="M642.9 160.5v6q18 9 36 0v-6" fill="#b2364a" stroke="#2a1c30" stroke-width="2.4"/><ellipse cx="660.9" cy="160.5" rx="18" ry="6.5" fill="#b2364a" stroke="#2a1c30" stroke-width="2.4"/><ellipse cx="200.6" cy="252.5" rx="20" ry="7" fill="#2a1c30" opacity=".25"/><path d="M182.6 246.5v6q18 9 36 0v-6" fill="#2f7d4f" stroke="#2a1c30" stroke-width="2.4"/><ellipse cx="200.6" cy="246.5" rx="18" ry="6.5" fill="#2f7d4f" stroke="#2a1c30" stroke-width="2.4"/><path d="M683.4 250.5q2 -34 16 -36q14 2 16 36z" fill="#d9c69a" stroke="#2a1c30" stroke-width="2.4"/><path d="M699.9 243.4h0.01M704.9 226.9h0.01M693.1 242h0.01M695.7 228.8h0.01M707 236.7h0.01M703.8 243.4h0.01M691.9 231.7h0.01M696.3 223.8h0.01M702 240.7h0.01M698.5 241h0.01M695.9 231.2h0.01M694.2 238.8h0.01M694.8 241.4h0.01M701.1 223.3h0.01M706 226.5h0.01M704.3 239.7h0.01" stroke="#2a1c30" stroke-width="1.8" stroke-linecap="round" opacity="0.55"/><ellipse cx="699.4" cy="250.5" rx="16" ry="5" fill="#eaddbe" stroke="#2a1c30" stroke-width="2.4"/><ellipse cx="289.6" cy="215.5" rx="56" ry="6" fill="#2a1c30" opacity="0.18"/><g transform="translate(285.6 181.5) scale(1.3 1.3)">
<path d="M9 -6L28 -20L40.9 -13.4L46 -8M12 -2L34 -22L38.1 4.4L36 26M13 3L46 -12L53.4 8.9L54 26M10 7L48 -2L59.8 13.4L64 26M-9 -6L-20 -24L-21.3 3.5L-17 26M-12 -2L-34 -22L-38.1 4.4L-36 26M-13 3L-46 -12L-53.4 8.9L-54 26M-10 7L-48 -2L-59.8 13.4L-64 26" stroke="#2a1c30" stroke-width="4.4" fill="none" stroke-linecap="round" stroke-linejoin="round"/>
<path d="M9 -6L28 -20L40.9 -13.4L46 -8M12 -2L34 -22L38.1 4.4L36 26M13 3L46 -12L53.4 8.9L54 26M10 7L48 -2L59.8 13.4L64 26M-9 -6L-20 -24L-21.3 3.5L-17 26M-12 -2L-34 -22L-38.1 4.4L-36 26M-13 3L-46 -12L-53.4 8.9L-54 26M-10 7L-48 -2L-59.8 13.4L-64 26" stroke="#5f2470" stroke-width="2.2" fill="none" stroke-linecap="round" stroke-linejoin="round"/>
<ellipse cx="0" cy="-22" rx="19" ry="17" fill="#5f2470" stroke="#2a1c30" stroke-width="2.2"/>
<ellipse cx="-6.6" cy="-28.8" rx="7.2" ry="4.4" fill="#7b3a8e" transform="rotate(-25 -6.6 -28.8)"/>
<path d="M-14 -24q14 -6 28 0M-13 -16q13 -5 26 0" stroke="#f0cf6b" stroke-width="2.2" fill="none" stroke-linecap="round"/>
<ellipse cx="0" cy="0" rx="14.5" ry="12.5" fill="#5f2470" stroke="#2a1c30" stroke-width="2.2"/>
<path d="M-8 -8q8 -5 16 0" stroke="#7b3a8e" stroke-width="2" fill="none" stroke-linecap="round"/>
<path d="M-4.5 10.5q-1.5 4 0.5 5.5M4.5 10.5q1.5 4 -0.5 5.5" stroke="#2a1c30" stroke-width="3.2" fill="none" stroke-linecap="round"/>
<circle cx="-10.8" cy="-5.2" r="1.6" fill="#2a1c30"/><circle cx="-10.3" cy="-5.7" r="0.6" fill="#f0cf6b"/><circle cx="10.8" cy="-5.2" r="1.6" fill="#2a1c30"/><circle cx="11.3" cy="-5.7" r="0.6" fill="#f0cf6b"/><circle cx="-3.2" cy="-8.6" r="1.2" fill="#2a1c30"/><circle cx="-2.8" cy="-9" r="0.5" fill="#f0cf6b"/><circle cx="3.2" cy="-8.6" r="1.2" fill="#2a1c30"/><circle cx="3.6" cy="-9" r="0.5" fill="#f0cf6b"/>
<circle cx="-5.6" cy="-0.2" r="5.1" fill="#f6efdd" stroke="#2a1c30" stroke-width="1.3"/><circle cx="-3.8" cy="0.9" r="3" fill="#2a1c30"/><circle cx="-2.7" cy="-0.4" r="1.2" fill="#f0cf6b"/><circle cx="5.6" cy="-0.2" r="5.1" fill="#f6efdd" stroke="#2a1c30" stroke-width="1.3"/><circle cx="7.4" cy="0.9" r="3" fill="#2a1c30"/><circle cx="8.5" cy="-0.4" r="1.2" fill="#f0cf6b"/><path d="M-10 -8l7 -1.6M10 -8l-7 -1.6" stroke="#2a1c30" stroke-width="1.8" stroke-linecap="round"/><ellipse cx="0" cy="8" rx="1.8" ry="2.2" fill="#2a1c30"/><path d="M-14 -10h28" stroke="#2a1c30" stroke-width="2.4"/><circle cx="-6" cy="-11" r="4.2" fill="#f0cf6b" stroke="#2a1c30" stroke-width="1.8"/><circle cx="6" cy="-11" r="4.2" fill="#f0cf6b" stroke="#2a1c30" stroke-width="1.8"/></g><path d="M560 98Q561.6 102.4 566 104Q561.6 105.6 560 110Q558.4 105.6 554 104Q558.4 102.4 560 98z" fill="#f0cf6b" stroke="#2a1c30" stroke-width="0.9" stroke-linejoin="round"/><path d="M210 96Q211 99 214 100Q211 101 210 104Q209 101 206 100Q209 99 210 96z" fill="#f0cf6b" stroke="#2a1c30" stroke-width="0.9" stroke-linejoin="round"/>
</svg>
