<svg xmlns="http://www.w3.org/2000/svg" viewBox="0 0 900 300" role="img" aria-label="Seven tools of the trade: bow tie, vent, goggles, glove, spyglass, window and dust bunny">
<title>Seven tools of the trade: bow tie, vent, goggles, glove, spyglass, window and dust bunny</title>
<defs><radialGradient id="cr-glow" cx="50%" cy="50%" r="50%"><stop offset="0" stop-color="#e6dccb"/><stop offset=".6" stop-color="#e6dccb" stop-opacity=".75"/><stop offset="1" stop-color="#e6dccb" stop-opacity="0"/></radialGradient></defs><ellipse cx="450" cy="150" rx="432" ry="150" fill="url(#cr-glow)"/><path d="M90 262H810" stroke="#141216" stroke-width="2.6" stroke-linecap="round"/><path d="M104 267l-7 9M115 267l-7 9M126 267l-7 9M137 267l-7 9M148 267l-7 9M159 267l-7 9M170 267l-7 9M181 267l-7 9M192 267l-7 9M203 267l-7 9M214 267l-7 9M225 267l-7 9M236 267l-7 9M247 267l-7 9M258 267l-7 9M269 267l-7 9M280 267l-7 9M291 267l-7 9M302 267l-7 9M313 267l-7 9M324 267l-7 9M335 267l-7 9M346 267l-7 9M357 267l-7 9M368 267l-7 9M379 267l-7 9M390 267l-7 9M401 267l-7 9M412 267l-7 9M423 267l-7 9M434 267l-7 9M445 267l-7 9M456 267l-7 9M467 267l-7 9M478 267l-7 9M489 267l-7 9M500 267l-7 9M511 267l-7 9M522 267l-7 9M533 267l-7 9M544 267l-7 9M555 267l-7 9M566 267l-7 9M577 267l-7 9M588 267l-7 9M599 267l-7 9M610 267l-7 9M621 267l-7 9M632 267l-7 9M643 267l-7 9M654 267l-7 9M665 267l-7 9M676 267l-7 9M687 267l-7 9M698 267l-7 9M709 267l-7 9M720 267l-7 9M731 267l-7 9M742 267l-7 9M753 267l-7 9M764 267l-7 9M775 267l-7 9M786 267l-7 9M797 267l-7 9" stroke="#141216" stroke-width="1.3" opacity=".3"/><ellipse cx="110" cy="262" rx="44" ry="6" fill="#141216" opacity="0.18"/><ellipse cx="225" cy="262" rx="44" ry="6" fill="#141216" opacity="0.18"/><ellipse cx="340" cy="262" rx="44" ry="6" fill="#141216" opacity="0.18"/><ellipse cx="450" cy="262" rx="44" ry="6" fill="#141216" opacity="0.18"/><ellipse cx="565" cy="262" rx="44" ry="6" fill="#141216" opacity="0.18"/><ellipse cx="680" cy="262" rx="44" ry="6" fill="#141216" opacity="0.18"/><ellipse cx="800" cy="262" rx="44" ry="6" fill="#141216" opacity="0.18"/><path d="M110 252l-40 -9q-8 10 0 20zM110 252l40 -9q8 10 0 20z" fill="#8f1d1d" stroke="#141216" stroke-width="2.6" stroke-linejoin="round"/><path d="M110 248l-40 -9q-8 10 0 20zM110 248l40 -9q8 10 0 20z" fill="#d13a2f" stroke="#141216" stroke-width="3" stroke-linejoin="round"/><ellipse cx="110" cy="248" rx="9" ry="6" fill="#8f1d1d" stroke="#141216" stroke-width="2.6"/><path d="M80 244q8 4 0 9M140 244q-8 4 0 9" stroke="#141216" stroke-width="2" fill="none" stroke-linecap="round" stroke-linejoin="round" opacity=".5"/><path d="M144 217Q145.3 220.7 149 222Q145.3 223.3 144 227Q142.7 223.3 139 222Q142.7 220.7 144 217z" fill="#f0cf6b" stroke="#141216" stroke-width="0.9" stroke-linejoin="round"/><path d="M187 188l14 -12h78l-12 12zM267 192l12 -16V250l-12 12z" fill="#5a5660" stroke="#141216" stroke-width="2.6" stroke-linejoin="round"/><rect x="183" y="188" width="84" height="74" rx="6" fill="#cdbfa4" stroke="#141216" stroke-width="3"/><path d="M195 202h60M195 214h60M195 226h60M195 238h60M195 250h60" stroke="#141216" stroke-width="6" fill="none" stroke-linecap="round" stroke-linejoin="round"/><path d="M195 202h60M195 214h60M195 226h60M195 238h60M195 250h60" stroke="#1f1d22" stroke-width="2.5" fill="none" stroke-linecap="round" stroke-linejoin="round"/><circle cx="191" cy="196" r="3" fill="#141216"/><circle cx="259" cy="254" r="3" fill="#141216"/><circle cx="219" cy="226" r="2.6" fill="#f0cf6b"/><circle cx="231" cy="226" r="2.6" fill="#f0cf6b"/><path d="M300 250Q282 234 340 232Q398 234 380 250" stroke="#141216" stroke-width="6" fill="none" stroke-linecap="round" stroke-linejoin="round"/><path d="M300 250Q282 234 340 232Q398 234 380 250" stroke="#36343a" stroke-width="3" fill="none" stroke-linecap="round" stroke-linejoin="round"/><path d="M298 252v5a20 7 0 0 0 40 0v-5" fill="#b8892a" stroke="#141216" stroke-width="2.6"/><ellipse cx="318" cy="252" rx="20" ry="7" fill="#b8892a" stroke="#141216" stroke-width="2.6"/><ellipse cx="318" cy="252" rx="13" ry="4.5" fill="#f0cf6b" stroke="#141216" stroke-width="2"/><path d="M310 251q4 -2.4 9 -2.6" stroke="#f3eee4" stroke-width="2" fill="none" stroke-linecap="round"/><path d="M342 252v5a20 7 0 0 0 40 0v-5" fill="#b8892a" stroke="#141216" stroke-width="2.6"/><ellipse cx="362" cy="252" rx="20" ry="7" fill="#b8892a" stroke="#141216" stroke-width="2.6"/><ellipse cx="362" cy="252" rx="13" ry="4.5" fill="#f0cf6b" stroke="#141216" stroke-width="2"/><path d="M354 251q4 -2.4 9 -2.6" stroke="#f3eee4" stroke-width="2" fill="none" stroke-linecap="round"/><rect x="336" y="250" width="8" height="5" fill="#141216"/><path d="M420 238q-12 -46 22 -54q40 -6 44 26q4 30 -20 40z" fill="#d13a2f" stroke="#141216" stroke-width="3" stroke-linejoin="round"/><path d="M416 224q-14 6 -6 22q10 6 18 -4" fill="#d13a2f" stroke="#141216" stroke-width="3"/><rect x="420" y="236" width="48" height="26" rx="4" fill="#f3eee4" stroke="#141216" stroke-width="3"/><path d="M430 244h28M430 253h28" stroke="#141216" stroke-width="2" fill="none" stroke-linecap="round" stroke-linejoin="round" opacity=".5"/><path d="M440 194q14 -4 22 6" stroke="#f3eee4" stroke-width="4" fill="none" stroke-linecap="round" opacity=".7"/><g transform="rotate(-4.2 565 250.2)"><rect x="517" y="242.2" width="36" height="16" rx="3" fill="#b8892a" stroke="#141216" stroke-width="3"/><rect x="551" y="239.2" width="30" height="22" rx="3" fill="#36343a" stroke="#141216" stroke-width="3"/><rect x="579" y="235.2" width="34" height="30" rx="4" fill="#b8892a" stroke="#141216" stroke-width="3"/><ellipse cx="613" cy="250.2" rx="5" ry="15" fill="#f0cf6b" stroke="#141216" stroke-width="2.6"/><path d="M521 247.2h26M583 241.2h24" stroke="#f0cf6b" stroke-width="2.4"/></g><path d="M628 156l12 -10h92l-12 10zM732 156l12 -10V252l-12 10z" fill="#cdbfa4" stroke="#141216" stroke-width="2.6" stroke-linejoin="round"/><rect x="628" y="156" width="104" height="106" fill="#e6dccb" stroke="#141216" stroke-width="3"/><path d="M628 182h12M720 182h12M628 224h12M720 224h12" stroke="#141216" stroke-width="1.4" fill="none" stroke-linecap="round" stroke-linejoin="round" opacity=".35"/><rect x="640" y="168" width="80" height="84" fill="#1f1d22" stroke="#141216" stroke-width="3"/><circle cx="696" cy="192" r="10" fill="#f3eee4"/><path d="M680 168v84M640 210h80" stroke="#36343a" stroke-width="6" fill="none" stroke-linecap="round" stroke-linejoin="round"/><rect x="640" y="168" width="80" height="84" fill="none" stroke="#141216" stroke-width="3"/><rect x="632" y="252" width="96" height="10" fill="#5a5660" stroke="#141216" stroke-width="3"/><path d="M648 176l14 -0M648 182l8 0" stroke="#f3eee4" stroke-width="2.4" fill="none" stroke-linecap="round" stroke-linejoin="round" opacity=".5"/><ellipse cx="800" cy="237" rx="30" ry="25" fill="#cdbfa4" stroke="#141216" stroke-width="2.4"/><path d="M801.4 253.7L802.3 261M823.8 237.1L832.6 237.2M804.9 259.8L806 261M823.4 250.4L834.2 256.5M779.7 248L774.3 250.9M794.7 220.9L792.3 213.4M823.7 246.1L834.4 250.2M781 224.9L770.7 218.4M820.3 244.5L828.5 247.6M772.7 234.8L761.3 233.9M783.6 222.8L779.3 219.1M812.9 219.3L819.7 210M789.3 255.7L786.6 260.4M820.9 221.9L825.9 218.3M780.8 220.4L774 214.4M814.8 254.8L818.6 259.3M826.7 233.6L839.5 231.9M818.8 225.7L826.7 220.9M810.7 253.4L813.9 258.3M774.2 228.4L766.5 225.9M828.6 234.9L835.8 234.3M814.4 221.8L819 216.9M812.9 216.5L816.3 211.2M813.7 257L818.6 261M777.2 238.1L764.4 238.8M821.3 238.8L835.1 240M823.1 232.9L834.7 230.8M806.3 256.7L808 261M779.7 232.9L773.6 231.7M803.4 257.9L804.8 261M777.1 237.1L770.9 237.1M807.8 215.6L810.8 207.3M792.4 218.4L789.9 212.6M794.2 259.4L792.3 261M794.9 254.3L792.4 261M828.8 237.7L836.2 237.9M827.9 241.5L840.2 243.5M804 257.2L805.5 261M819.2 228L828.5 223.7M822.8 248.1L833.3 253.2" stroke="#141216" stroke-width="1.6" fill="none" stroke-linecap="round" stroke-linejoin="round" opacity=".7"/><path d="M784 217q-6 -26 4 -30q6 10 4 30zM806 215q2 -26 12 -28q2 12 -4 30z" fill="#cdbfa4" stroke="#141216" stroke-width="2.4"/><circle cx="792" cy="233" r="3" fill="#141216"/><circle cx="808" cy="233" r="3" fill="#141216"/><circle cx="793" cy="232" r="1" fill="#f0cf6b"/><circle cx="809" cy="232" r="1" fill="#f0cf6b"/><path d="M796 243q4 3 8 0" stroke="#141216" stroke-width="1.8" fill="none" stroke-linecap="round" stroke-linejoin="round"/>
</svg>
