<svg xmlns="http://www.w3.org/2000/svg" viewBox="0 0 840 390" role="img" aria-label="Heist 1 sample map: a 16 by 7 grid with the vent, counter, cabinet, cat's bed and door">
<title>Heist 1 sample map: a 16 by 7 grid with the vent, counter, cabinet, cat's bed and door</title>
<rect x="26" y="28" width="800" height="350" fill="#141216" opacity=".18"/><rect x="20" y="20" width="800" height="350" fill="#e6dccb"/><path d="M444.9 334.7h0.01M82.7 138.3h0.01M717.8 237.3h0.01M621 235h0.01M72.5 153.3h0.01M209 117h0.01M90.1 175.6h0.01M635.9 143.1h0.01M315.6 291.5h0.01M265.6 158.8h0.01M333.1 346.1h0.01M675 257.5h0.01M348.2 198.6h0.01M178.2 293.2h0.01M310.2 67.9h0.01M308.6 63.5h0.01M478.1 349.7h0.01M223.3 147.2h0.01M684.5 221.5h0.01M279.5 165.9h0.01M600 311.3h0.01M461.1 164h0.01M259.6 195.9h0.01M316.9 94h0.01M35 210.2h0.01M678.8 120.7h0.01M662.8 274.7h0.01M471 281.3h0.01M356.8 343h0.01M412.2 240h0.01M420.5 144.3h0.01M487.5 233.6h0.01M463.2 29.3h0.01M542.3 333.4h0.01M270.4 338.9h0.01M36.1 216.8h0.01M367.7 25h0.01M250.1 181.3h0.01M547 58.2h0.01M591.8 157.2h0.01M739.2 121.1h0.01M755.4 110h0.01M210.5 136.3h0.01M461.1 323.1h0.01M239.9 139.8h0.01M346.6 160.1h0.01M210 66.1h0.01M789.1 211.4h0.01M690.6 234.6h0.01M677.2 182.9h0.01M779.1 165.6h0.01M429.2 234.3h0.01M392.9 363.1h0.01M387.8 365h0.01M644.2 136.9h0.01M664.4 297.9h0.01M186.4 146.6h0.01M387.3 320.7h0.01M331 37.7h0.01M447.6 96.2h0.01M49.8 257.2h0.01M150 312.3h0.01M730.6 178.7h0.01M473.5 331.7h0.01M388 298.8h0.01M475.5 255.4h0.01M350.1 247.7h0.01M562 296.3h0.01M393.4 306.3h0.01M411.3 116.7h0.01M647.2 212.1h0.01M653.5 312.1h0.01M243.9 263.4h0.01M379.6 367.8h0.01M379.2 152.2h0.01M341.2 237.3h0.01M245.2 326h0.01M114.7 177.9h0.01M579.1 239.7h0.01M528.6 219.7h0.01M257.5 107.9h0.01M265 40.5h0.01M762.5 207.2h0.01M83.7 208.6h0.01M479.9 24.1h0.01M543.1 66.5h0.01M594.3 279.1h0.01M465.9 309.6h0.01M288.7 291.3h0.01M553.6 120.1h0.01M719.7 200.2h0.01M88.5 285.1h0.01M339.9 280.6h0.01M462.7 368.7h0.01M617.3 256.5h0.01M405.5 233h0.01M140.4 297.6h0.01M585.5 187.1h0.01M548.9 141.6h0.01M271.3 350.7h0.01M238.8 341.1h0.01M77.3 230.3h0.01M735.2 179.3h0.01M763.5 221.1h0.01M153.8 268.7h0.01M170.1 91.1h0.01M218.5 241.3h0.01M451.3 324.1h0.01M768.8 120.6h0.01M575.3 53.5h0.01M674.9 99h0.01M626.6 140.8h0.01M443.7 22.1h0.01M438.6 327.5h0.01M666.8 245.8h0.01M201.4 69.4h0.01M581.1 191.5h0.01M589.3 39h0.01M730.9 281.7h0.01M95.5 108.7h0.01M285.8 146.1h0.01M512.9 29.2h0.01M764.2 153.3h0.01M565.1 203.1h0.01M418.9 352.9h0.01M389.8 67.8h0.01M714.5 294.2h0.01M29.8 226.5h0.01M678.8 204h0.01M417.2 267.6h0.01M811.1 181.3h0.01M189.3 292.8h0.01M279.4 293h0.01M566 287.5h0.01M394.1 26.9h0.01M359.7 244.4h0.01M701.5 158.3h0.01M481.2 356.1h0.01M714 93.1h0.01M603.4 97.5h0.01M636.4 86.1h0.01M149 149.1h0.01M549.3 291.1h0.01M583.5 41.3h0.01M78.6 272.7h0.01M199.4 221.9h0.01M328.8 319.8h0.01M369.4 285.1h0.01M291.9 208.4h0.01M507.4 155.4h0.01M741.5 173.5h0.01M720 254.9h0.01M208.6 210.2h0.01M96.4 256.9h0.01M499.2 30.9h0.01M402.7 137.9h0.01M459.8 175.9h0.01M806.3 223.7h0.01M421.2 357.5h0.01M460.3 294h0.01M362.5 311.8h0.01M729.8 130.9h0.01M704.3 145.4h0.01M570.5 217.4h0.01M621 178h0.01M51.9 168.5h0.01M147.8 93.1h0.01M483.2 197.7h0.01M458.3 282.1h0.01M226.4 156.5h0.01M102.7 247.2h0.01M46.6 198.3h0.01M467.6 174.8h0.01M783.8 202.5h0.01M311.4 334.5h0.01M304.5 283.9h0.01M570.6 147h0.01M223.1 266.9h0.01M701.7 294.1h0.01M443.8 288.7h0.01M749.6 180.1h0.01M505 92.3h0.01M433.1 236.1h0.01M456.3 59.2h0.01M410.4 315.8h0.01M229 246.4h0.01M700.2 158.9h0.01M633 145.1h0.01M722.9 215.3h0.01M28 182.1h0.01M660 218.3h0.01M486.1 274.3h0.01M172.2 122.1h0.01M535.3 333.2h0.01M387.4 316.2h0.01M376.8 284h0.01M652.3 323.1h0.01M269.9 177.5h0.01M477.1 237.6h0.01M257.8 353.6h0.01M331.4 132.5h0.01M302.1 234.3h0.01M365.7 154.4h0.01M226.9 73h0.01M627.9 168.1h0.01M396.8 168.6h0.01M598.4 154.4h0.01M430.4 297.2h0.01M390.7 151h0.01M298.6 274.5h0.01M541.1 270.7h0.01M222.6 167.1h0.01M377.9 181.1h0.01M345.5 78.9h0.01M148.3 168.4h0.01M761.2 234h0.01M72.6 162.1h0.01M222.1 140.3h0.01M523 309.9h0.01M455.5 334.4h0.01M548.4 92.8h0.01M568.9 90.5h0.01M499.1 334.2h0.01M381.5 243.5h0.01M168.3 129.5h0.01M247.3 205.8h0.01M429.4 94.1h0.01M412 227.3h0.01M471.8 199.8h0.01M176.2 260.3h0.01M507.6 350.1h0.01M337.9 53.9h0.01M808.3 177.7h0.01M311.4 41.1h0.01M202.8 257.5h0.01M641.2 255.4h0.01M382.8 224.9h0.01M170.4 290.3h0.01M738.8 100.7h0.01M90.7 102h0.01M112.6 90.5h0.01M659.8 90.7h0.01M313.3 267h0.01M70.1 132.3h0.01M217.6 113.2h0.01M585.8 150.7h0.01M584.6 74.2h0.01M134.6 205.1h0.01M603.1 289.9h0.01M746.5 279.5h0.01M48.3 235.4h0.01M49 148.4h0.01M204.8 72.7h0.01M706.2 111.4h0.01M457.7 107.8h0.01M353.5 70.1h0.01M586.5 293.9h0.01M137.8 227.3h0.01M341.6 209.7h0.01M90 241.6h0.01" stroke="#b8892a" stroke-width="1.8" stroke-linecap="round" opacity="0.35"/><rect x="20" y="20" width="50" height="50" fill="#1f1d22"/><rect x="70" y="20" width="50" height="50" fill="#1f1d22"/><rect x="120" y="20" width="50" height="50" fill="#1f1d22"/><rect x="170" y="20" width="50" height="50" fill="#1f1d22"/><rect x="220" y="20" width="50" height="50" fill="#1f1d22"/><rect x="270" y="20" width="50" height="50" fill="#1f1d22"/><rect x="320" y="20" width="50" height="50" fill="#1f1d22"/><rect x="370" y="20" width="50" height="50" fill="#1f1d22"/><rect x="420" y="20" width="50" height="50" fill="#1f1d22"/><rect x="470" y="20" width="50" height="50" fill="#1f1d22"/><rect x="520" y="20" width="50" height="50" fill="#1f1d22"/><rect x="570" y="20" width="50" height="50" fill="#1f1d22"/><rect x="620" y="20" width="50" height="50" fill="#1f1d22"/><rect x="670" y="20" width="50" height="50" fill="#1f1d22"/><rect x="720" y="20" width="50" height="50" fill="#1f1d22"/><rect x="770" y="20" width="50" height="50" fill="#1f1d22"/><rect x="20" y="70" width="50" height="50" fill="#1f1d22"/><rect x="770" y="70" width="50" height="50" fill="#1f1d22"/><rect x="20" y="120" width="50" height="50" fill="#1f1d22"/><rect x="770" y="120" width="50" height="50" fill="#1f1d22"/><rect x="20" y="170" width="50" height="50" fill="#1f1d22"/><rect x="770" y="170" width="50" height="50" fill="#1f1d22"/><rect x="20" y="220" width="50" height="50" fill="#1f1d22"/><rect x="770" y="220" width="50" height="50" fill="#1f1d22"/><rect x="20" y="270" width="50" height="50" fill="#1f1d22"/><rect x="770" y="270" width="50" height="50" fill="#1f1d22"/><rect x="20" y="320" width="50" height="50" fill="#1f1d22"/><rect x="70" y="320" width="50" height="50" fill="#1f1d22"/><rect x="120" y="320" width="50" height="50" fill="#1f1d22"/><rect x="170" y="320" width="50" height="50" fill="#1f1d22"/><rect x="220" y="320" width="50" height="50" fill="#1f1d22"/><rect x="270" y="320" width="50" height="50" fill="#1f1d22"/><rect x="320" y="320" width="50" height="50" fill="#1f1d22"/><rect x="370" y="320" width="50" height="50" fill="#1f1d22"/><rect x="420" y="320" width="50" height="50" fill="#1f1d22"/><rect x="470" y="320" width="50" height="50" fill="#1f1d22"/><rect x="520" y="320" width="50" height="50" fill="#1f1d22"/><rect x="570" y="320" width="50" height="50" fill="#1f1d22"/><rect x="620" y="320" width="50" height="50" fill="#1f1d22"/><rect x="670" y="320" width="50" height="50" fill="#1f1d22"/><rect x="720" y="320" width="50" height="50" fill="#1f1d22"/><rect x="770" y="320" width="50" height="50" fill="#1f1d22"/><rect x="320" y="70" width="50" height="50" fill="#5a5660"/><rect x="370" y="70" width="50" height="50" fill="#5a5660"/><rect x="420" y="70" width="50" height="50" fill="#5a5660"/><rect x="470" y="70" width="50" height="50" fill="#5a5660"/><rect x="520" y="70" width="50" height="50" fill="#5a5660"/><rect x="570" y="70" width="50" height="50" fill="#5a5660"/><rect x="320" y="120" width="50" height="50" fill="#5a5660"/><rect x="370" y="120" width="50" height="50" fill="#5a5660"/><rect x="420" y="120" width="50" height="50" fill="#5a5660"/><rect x="470" y="120" width="50" height="50" fill="#5a5660"/><rect x="520" y="120" width="50" height="50" fill="#5a5660"/><rect x="570" y="120" width="50" height="50" fill="#5a5660"/><rect x="520" y="270" width="50" height="50" fill="#cdbfa4"/><rect x="570" y="270" width="50" height="50" fill="#cdbfa4"/><rect x="620" y="270" width="50" height="50" fill="#cdbfa4"/><rect x="670" y="270" width="50" height="50" fill="#cdbfa4"/><path d="M20 37h50M20 54h50M32 20v17M57 37v17M32 54v16M70 37h50M70 54h50M107 20v17M82 37v17M107 54v16M120 37h50M120 54h50M132 20v17M157 37v17M132 54v16M170 37h50M170 54h50M207 20v17M182 37v17M207 54v16M220 37h50M220 54h50M232 20v17M257 37v17M232 54v16M270 37h50M270 54h50M307 20v17M282 37v17M307 54v16M320 37h50M320 54h50M332 20v17M357 37v17M332 54v16M370 37h50M370 54h50M407 20v17M382 37v17M407 54v16M420 37h50M420 54h50M432 20v17M457 37v17M432 54v16M470 37h50M470 54h50M507 20v17M482 37v17M507 54v16M520 37h50M520 54h50M532 20v17M557 37v17M532 54v16M570 37h50M570 54h50M607 20v17M582 37v17M607 54v16M620 37h50M620 54h50M632 20v17M657 37v17M632 54v16M670 37h50M670 54h50M707 20v17M682 37v17M707 54v16M720 37h50M720 54h50M732 20v17M757 37v17M732 54v16M770 37h50M770 54h50M807 20v17M782 37v17M807 54v16M770 87h50M770 104h50M782 70v17M807 87v17M782 104v16M20 137h50M20 154h50M32 120v17M57 137v17M32 154v16M770 137h50M770 154h50M807 120v17M782 137v17M807 154v16M20 187h50M20 204h50M57 170v17M32 187v17M57 204v16M770 187h50M770 204h50M782 170v17M807 187v17M782 204v16M20 237h50M20 254h50M32 220v17M57 237v17M32 254v16M770 237h50M770 254h50M807 220v17M782 237v17M807 254v16M20 287h50M20 304h50M57 270v17M32 287v17M57 304v16M770 287h50M770 304h50M782 270v17M807 287v17M782 304v16M20 337h50M20 354h50M32 320v17M57 337v17M32 354v16M70 337h50M70 354h50M107 320v17M82 337v17M107 354v16M120 337h50M120 354h50M132 320v17M157 337v17M132 354v16M170 337h50M170 354h50M207 320v17M182 337v17M207 354v16M220 337h50M220 354h50M232 320v17M257 337v17M232 354v16M270 337h50M270 354h50M307 320v17M282 337v17M307 354v16M320 337h50M320 354h50M332 320v17M357 337v17M332 354v16M370 337h50M370 354h50M407 320v17M382 337v17M407 354v16M420 337h50M420 354h50M432 320v17M457 337v17M432 354v16M470 337h50M470 354h50M507 320v17M482 337v17M507 354v16M520 337h50M520 354h50M532 320v17M557 337v17M532 354v16M570 337h50M570 354h50M607 320v17M582 337v17M607 354v16M620 337h50M620 354h50M632 320v17M657 337v17M632 354v16M670 337h50M670 354h50M707 320v17M682 337v17M707 354v16M720 337h50M720 354h50M732 320v17M757 337v17M732 354v16M770 337h50M770 354h50M807 320v17M782 337v17M807 354v16" stroke="#36343a" stroke-width="1.2" fill="none" stroke-linecap="round" stroke-linejoin="round"/><path d="M20 20V370M70 20V370M120 20V370M170 20V370M220 20V370M270 20V370M320 20V370M370 20V370M420 20V370M470 20V370M520 20V370M570 20V370M620 20V370M670 20V370M720 20V370M770 20V370M820 20V370M20 20H820M20 70H820M20 120H820M20 170H820M20 220H820M20 270H820M20 320H820M20 370H820" stroke="#141216" stroke-width="1.3" fill="none" stroke-linecap="round" stroke-linejoin="round" opacity=".35"/><path d="M70 70H770V320H70Z" fill="none" stroke="#141216" stroke-width="3"/><rect x="320" y="70" width="300" height="100" fill="none" stroke="#141216" stroke-width="3"/><path d="M324 165H616" stroke="#36343a" stroke-width="3" fill="none" stroke-linecap="round" stroke-linejoin="round"/><path d="M332 84l10 -6M346 150l12 -7M382 84l10 -6M396 150l12 -7M432 84l10 -6M446 150l12 -7M482 84l10 -6M496 150l12 -7M532 84l10 -6M546 150l12 -7M582 84l10 -6M596 150l12 -7" stroke="#f3eee4" stroke-width="2.4" fill="none" stroke-linecap="round" stroke-linejoin="round" opacity=".55"/><rect x="26" y="76" width="38" height="38" rx="3" fill="#cdbfa4" stroke="#141216" stroke-width="2.4"/><path d="M32 85h26M32 92h26M32 99h26M32 106h26" stroke="#141216" stroke-width="3" fill="none" stroke-linecap="round" stroke-linejoin="round"/><circle cx="30" cy="80" r="1.6" fill="#141216"/><circle cx="60" cy="110" r="1.6" fill="#141216"/><rect x="723" y="73" width="44" height="44" rx="3" fill="#b8892a" stroke="#141216" stroke-width="2.6"/><path d="M745 75v40" stroke="#141216" stroke-width="1.6" fill="none" stroke-linecap="round" stroke-linejoin="round" opacity=".5"/><circle cx="745" cy="95" r="15" fill="#f0cf6b" opacity=".5"/><circle cx="745" cy="95" r="11" fill="#3d5a80" stroke="#141216" stroke-width="2.2"/><circle cx="745" cy="95" r="7.5" fill="#6f90b8"/><circle cx="742" cy="92" r="2.4" fill="#f3eee4" opacity=".8"/><circle cx="295" cy="245" r="20" fill="#8f1d1d" stroke="#141216" stroke-width="2.6"/><circle cx="295" cy="245" r="12" fill="#d13a2f" stroke="#141216" stroke-width="1.8"/><circle cx="295" cy="247" r="3.4" fill="#f3eee4"/><circle cx="290" cy="241" r="1.8" fill="#f3eee4"/><circle cx="295" cy="239" r="1.8" fill="#f3eee4"/><circle cx="300" cy="241" r="1.8" fill="#f3eee4"/><path d="M532.5 272v46M545 272v46M557.5 272v46M570 272v46M582.5 272v46M595 272v46M607.5 272v46M620 272v46M632.5 272v46M645 272v46M657.5 272v46M670 272v46M682.5 272v46M695 272v46M707.5 272v46" stroke="#b8892a" stroke-width="1" fill="none" stroke-linecap="round" stroke-linejoin="round" opacity=".7"/><rect x="520" y="310" width="10" height="10" fill="#141216"/><rect x="710" y="310" width="10" height="10" fill="#141216"/><path d="M530 315H710" stroke="#b8892a" stroke-width="3"/><path d="M532 312L580 278" stroke="#36343a" stroke-width="8" stroke-linecap="round"/><path d="M532 312L580 278" stroke="#141216" stroke-width="1.6" stroke-linecap="round"/><path d="M580 278A58.8 58.8 0 0 1 590.8 312" fill="none" stroke="#141216" stroke-width="1.4" stroke-dasharray="3 4"/><rect x="20" y="20" width="800" height="350" fill="none" stroke="#141216" stroke-width="3.4"/>
</svg>
