<svg xmlns="http://www.w3.org/2000/svg" viewBox="0 0 896 696" role="img" aria-label="Heist 3 map: a 16 by 12 pet store: the stockroom with feeder tubs and the loading-dock gap, three aisles of shelving, the snake tank, the parrot's cage by the front door gap, and the feeder bin behind the counter">
<title>Heist 3 map: a 16 by 12 pet store: the stockroom with feeder tubs and the loading-dock gap, three aisles of shelving, the snake tank, the parrot's cage by the front door gap, and the feeder bin behind the counter</title>
<rect x="54" y="56" width="800" height="600" fill="#141216" opacity=".18"/><rect x="48" y="48" width="800" height="600" fill="#e6dccb"/><path d="M474.9 634h0.01M155.1 160.4h0.01M800.4 432.7h0.01M388.8 401h0.01M808.3 472.6h0.01M735.3 310.8h0.01M165.4 414.1h0.01M169.4 185.8h0.01M496.2 157.4h0.01M83.6 392.9h0.01M267.8 506.3h0.01M738 489.8h0.01M568.8 193h0.01M619.3 616h0.01M642.2 488.4h0.01M321.5 374.7h0.01M685.8 503.3h0.01M464.6 261.7h0.01M144.6 170.2h0.01M417.7 577.4h0.01M313.4 482h0.01M111.6 328.2h0.01M389.7 459h0.01M670.5 179.3h0.01M158.1 553.9h0.01M280 360.3h0.01M439.1 635.8h0.01M209 237.4h0.01M567.8 524h0.01M455.8 360.2h0.01M323 103.8h0.01M629.1 522.4h0.01M428.9 66.5h0.01M271.8 486.3h0.01M213 139.4h0.01M170.4 343.3h0.01M535.1 61.8h0.01M278.4 599.9h0.01M504.1 500.3h0.01M769.4 269.1h0.01M471.4 414.2h0.01M349.1 610.4h0.01M459.5 210.6h0.01M100.7 332.8h0.01M248.6 433.5h0.01M339.3 456.9h0.01M572.5 249.6h0.01M303.4 121.7h0.01M255.1 404.9h0.01M218.5 322h0.01M648.6 458h0.01M109.4 403.3h0.01M674.8 146.2h0.01M486.2 594.7h0.01M353 305.9h0.01M430.8 76.2h0.01M107.1 241.5h0.01M771.9 438.7h0.01M81.1 465.7h0.01M598.3 277.6h0.01M374.7 618.7h0.01M598.5 72.5h0.01M513.5 332.8h0.01M593.4 250.2h0.01M642.9 330.1h0.01M772.9 222.7h0.01M268.4 167.8h0.01M328.4 441.2h0.01M487 353h0.01M679.4 544.7h0.01M654.4 442.9h0.01M50.1 364.3h0.01M559.3 555.1h0.01M192.7 340h0.01M354.2 330.8h0.01M362.2 217.7h0.01M289.4 393.4h0.01M442.6 88.5h0.01M323.8 390.8h0.01M547.2 302.2h0.01M314.4 287.2h0.01M585.4 196.4h0.01M273.9 191.3h0.01M419.9 522.4h0.01M356.9 197.7h0.01M801.7 370.8h0.01M161.4 259.6h0.01M472.4 129.9h0.01M404.9 479.9h0.01M789.4 272.6h0.01M672.6 378.1h0.01M351.6 339.6h0.01M70.9 304.6h0.01M103.6 475h0.01M845.4 362.2h0.01M455.9 544.8h0.01M630.9 290h0.01M703.4 567.8h0.01M597.7 479.2h0.01M736 393.8h0.01M588.4 572.2h0.01M683.4 257.8h0.01M795.9 449.4h0.01M397.9 359.3h0.01M104.4 324.5h0.01M386.4 531h0.01M111.2 230.8h0.01M759.6 310.7h0.01M480.7 367.9h0.01M573.5 623.2h0.01M135.3 214.3h0.01M326.3 107.9h0.01M622.3 553.1h0.01M462.3 417h0.01M696.5 224.6h0.01M196.4 554.2h0.01M588.3 148.5h0.01M703.8 352.9h0.01M635.8 98.6h0.01M495.1 191.3h0.01M458.9 346.7h0.01M640.2 328.8h0.01M80 298.8h0.01M172.4 471.4h0.01M395.3 74.6h0.01M244.3 364.6h0.01M430.6 533.1h0.01M187 509.2h0.01M585.7 186.4h0.01M695.8 522.9h0.01M166.7 470.1h0.01M504.7 230.1h0.01M707.1 172.2h0.01M195.7 390.7h0.01M383.3 427.4h0.01M349.6 534.3h0.01M491.7 595.9h0.01M780.7 462.7h0.01M780.2 308.4h0.01M753.3 395.9h0.01M560.1 254.5h0.01M500.9 172.8h0.01M354.8 441.8h0.01M530.1 177.8h0.01M704.8 366.9h0.01M216.8 466.5h0.01M565.1 204.8h0.01M416.6 267.7h0.01M191.3 272.2h0.01M305.2 271.8h0.01M472.9 546.1h0.01M759 194.1h0.01M380.8 539.6h0.01M530.7 484.5h0.01M296.5 95.7h0.01M661 139.9h0.01M594 324.1h0.01M316.3 114.3h0.01M327.8 448.7h0.01M400.2 60.1h0.01M575.1 534.1h0.01M461.8 539h0.01M666.4 395.3h0.01M436.5 642h0.01M662.5 371.6h0.01M490.9 143.7h0.01M211.9 498h0.01M485.1 221.2h0.01M209.6 165.2h0.01M377.7 340.9h0.01M716.7 556h0.01M430.6 240.5h0.01M265.7 426.6h0.01M651.8 120.7h0.01M651.1 365.7h0.01M357.5 632.1h0.01M432.8 515.6h0.01M391.9 392h0.01M209.7 188.6h0.01M59.8 400.7h0.01M308.9 432h0.01M385.8 365.8h0.01M690 135.6h0.01M228.3 371.5h0.01M665.9 591.8h0.01M583.4 234h0.01M109.5 365.8h0.01M294.7 522.5h0.01M185.6 262.2h0.01M640.8 344.4h0.01M497.8 595h0.01M602.7 289.9h0.01M313.7 164.5h0.01M656.8 484.1h0.01M563.4 194.7h0.01M468.4 394.6h0.01M426.2 123.3h0.01M670.2 516.7h0.01M601.5 291.6h0.01M596.5 195.2h0.01M445.6 540.3h0.01M189 250.6h0.01M364.9 263.2h0.01M526.1 522.7h0.01M407.2 229.9h0.01M705 294.4h0.01M667.1 484.1h0.01M149.3 462.7h0.01M444.7 556.5h0.01M298.2 474.5h0.01M301.6 127.3h0.01M722.8 520.7h0.01M580.7 408.7h0.01M360.8 378.4h0.01M579.8 383.7h0.01M760.2 506.8h0.01M433.7 195.2h0.01M111.1 205.3h0.01M508.6 471.4h0.01M356.7 270.6h0.01M760.6 521.1h0.01M407.8 319.7h0.01M683.3 341.5h0.01M724.8 174.2h0.01M330.5 577.3h0.01M184.4 200.8h0.01M656.1 92h0.01M355.3 98.1h0.01M331.2 398.7h0.01M589.9 374.3h0.01M782.7 212.2h0.01M415.4 140.9h0.01M689.1 211.7h0.01M336.4 406h0.01M331.6 402.1h0.01M591.2 104.3h0.01M813.8 248.9h0.01M725.7 289.3h0.01M213 467.4h0.01M450.8 252.3h0.01M264.5 254.2h0.01M568.9 258.5h0.01M344.3 86.5h0.01M405.3 421.4h0.01M229 97.6h0.01M365.9 109.5h0.01M243.1 454.3h0.01M329.7 276.6h0.01M239.1 389.9h0.01M569.7 447.3h0.01M395 486.2h0.01M430.3 205.2h0.01M187 493.4h0.01M737.4 369.5h0.01M788.8 475.4h0.01M496.4 158.7h0.01M320.6 548h0.01M615.7 78.8h0.01M200.8 544.5h0.01M735.6 492.9h0.01M331.9 106.3h0.01M388.8 559.2h0.01M356.2 307.4h0.01M552.2 292.1h0.01M285 249.7h0.01M107.7 455h0.01M432.8 345.3h0.01M468.5 413.4h0.01M94.5 217.8h0.01M733.6 239.9h0.01M575.9 304.6h0.01M793.5 450h0.01M604.5 504h0.01M232.3 147.1h0.01M216.6 156.4h0.01M734.1 385.5h0.01M233.1 528.3h0.01M316.9 155.8h0.01M447.2 256.2h0.01M724.9 531.9h0.01M646.4 332.7h0.01M272.5 288.6h0.01M365.7 332.9h0.01M703.3 207.1h0.01M300.4 325.5h0.01M660 219.3h0.01M626.5 470.3h0.01M810.9 366.1h0.01M587.2 607.9h0.01M663.9 523.3h0.01M745.4 335.4h0.01M792 224.3h0.01M184 396.7h0.01M663 196.4h0.01M302.7 444.9h0.01M587.7 408.5h0.01M286 100.6h0.01M407.1 389.9h0.01M340.2 408.1h0.01M432 443.5h0.01M349.3 612.7h0.01M550.4 573.8h0.01M720.8 308.4h0.01M164.2 549.1h0.01M784 371.2h0.01M311.6 201.4h0.01M312.3 212.1h0.01M294 394.3h0.01M415.5 192.1h0.01M720.9 310.6h0.01M607.2 609.8h0.01M538.4 333.2h0.01M479.5 574.4h0.01M545.3 534.8h0.01M558.9 303.4h0.01M280.2 212.2h0.01M511 258.5h0.01M545 603.3h0.01M834.3 403.5h0.01M456.4 464.2h0.01M248.8 156.4h0.01M526.8 430.8h0.01M246.6 339.7h0.01M681.9 379.5h0.01M635 165h0.01M603.2 432.3h0.01M625.2 378.3h0.01M444.5 619.7h0.01M230.4 124.3h0.01M609.2 406.1h0.01M390 309h0.01M557.4 421.2h0.01M687.2 415.4h0.01M260.5 527.2h0.01M822.2 430.1h0.01M756.6 346.8h0.01M238.7 293.2h0.01M638.7 540.2h0.01M585.5 578.9h0.01M650.6 341.5h0.01M231.9 350.1h0.01M112.3 356.5h0.01M792.3 419.8h0.01M450.9 303.2h0.01M166.2 554.6h0.01M175.3 276.9h0.01M402.2 257.4h0.01M308.1 100.9h0.01M637.4 175.5h0.01M614.7 562.8h0.01M624.1 317.5h0.01M193.5 518.8h0.01M370.1 243.8h0.01M441.8 227h0.01M618.9 334.3h0.01M186.7 398.6h0.01M427.4 591h0.01M91.2 411.3h0.01M370.8 346.3h0.01M256.9 196.4h0.01M390.1 442.1h0.01M473.9 230.1h0.01M736.7 439.4h0.01M655.4 516.2h0.01M772.4 452h0.01M486.5 615.1h0.01M588 304.8h0.01M252.8 390.9h0.01M236.4 516.1h0.01M249.2 213.7h0.01M646.3 270.6h0.01M291.4 456h0.01M369.2 177.9h0.01M212.4 493.4h0.01M786.1 216h0.01M331.9 485.3h0.01M570.1 187.8h0.01M211.5 397.3h0.01M413.6 385h0.01M691.6 432.7h0.01M129.1 419h0.01M486.7 584.1h0.01M288.9 592.2h0.01M319.1 278.7h0.01M71.5 361.1h0.01M793.6 386h0.01M386.1 72h0.01M92.8 278.2h0.01M337 532.8h0.01M425 65h0.01M522.2 350.4h0.01M317 96.7h0.01M402.6 96.2h0.01M751.1 163.1h0.01M697.8 128.1h0.01M587.9 310.7h0.01M468.5 184h0.01M768.4 199.2h0.01M274 89.7h0.01M129 298.9h0.01M368.9 470.3h0.01M560.2 76.9h0.01M565.1 98.9h0.01M436.4 345.3h0.01M230.4 252.3h0.01M775 435h0.01M278.5 135.5h0.01M568.8 123.8h0.01M398.2 645.1h0.01M613.2 310.4h0.01M379.1 291h0.01M596.4 372.9h0.01M439.8 333.5h0.01M623.5 452.9h0.01M468 78.6h0.01M385.2 499.5h0.01M194.8 213.3h0.01M354.7 439.9h0.01M419.2 432.8h0.01M580.3 188.8h0.01M501.4 323.8h0.01M598 313h0.01M794.8 361.7h0.01M629.8 559.5h0.01M630.8 609.1h0.01M760.2 505.2h0.01M279.9 459.9h0.01M129.5 444h0.01M641.1 170.9h0.01M398.1 106.7h0.01M192.3 303h0.01M408.4 610.8h0.01M384.7 343.7h0.01M349.9 189.1h0.01M847.1 363.9h0.01M341.4 172.9h0.01M308.7 147.4h0.01M537.3 420.7h0.01M228.1 559.2h0.01M309 335h0.01M285.8 250.5h0.01M311.8 500.2h0.01" stroke="#b8892a" stroke-width="1.8" stroke-linecap="round" opacity="0.35"/><rect x="48" y="48" width="50" height="50" fill="#1f1d22"/><rect x="98" y="48" width="50" height="50" fill="#1f1d22"/><rect x="148" y="48" width="50" height="50" fill="#1f1d22"/><rect x="198" y="48" width="50" height="50" fill="#1f1d22"/><rect x="298" y="48" width="50" height="50" fill="#1f1d22"/><rect x="348" y="48" width="50" height="50" fill="#1f1d22"/><rect x="398" y="48" width="50" height="50" fill="#1f1d22"/><rect x="448" y="48" width="50" height="50" fill="#1f1d22"/><rect x="498" y="48" width="50" height="50" fill="#1f1d22"/><rect x="548" y="48" width="50" height="50" fill="#1f1d22"/><rect x="598" y="48" width="50" height="50" fill="#1f1d22"/><rect x="648" y="48" width="50" height="50" fill="#1f1d22"/><rect x="698" y="48" width="50" height="50" fill="#1f1d22"/><rect x="748" y="48" width="50" height="50" fill="#1f1d22"/><rect x="798" y="48" width="50" height="50" fill="#1f1d22"/><rect x="48" y="98" width="50" height="50" fill="#1f1d22"/><rect x="798" y="98" width="50" height="50" fill="#1f1d22"/><rect x="48" y="148" width="50" height="50" fill="#1f1d22"/><rect x="798" y="148" width="50" height="50" fill="#1f1d22"/><rect x="48" y="198" width="50" height="50" fill="#1f1d22"/><rect x="98" y="198" width="50" height="50" fill="#1f1d22"/><rect x="148" y="198" width="50" height="50" fill="#1f1d22"/><rect x="198" y="198" width="50" height="50" fill="#1f1d22"/><rect x="248" y="198" width="50" height="50" fill="#1f1d22"/><rect x="298" y="198" width="50" height="50" fill="#1f1d22"/><rect x="348" y="198" width="50" height="50" fill="#1f1d22"/><rect x="398" y="198" width="50" height="50" fill="#1f1d22"/><rect x="548" y="198" width="50" height="50" fill="#1f1d22"/><rect x="598" y="198" width="50" height="50" fill="#1f1d22"/><rect x="648" y="198" width="50" height="50" fill="#1f1d22"/><rect x="698" y="198" width="50" height="50" fill="#1f1d22"/><rect x="748" y="198" width="50" height="50" fill="#1f1d22"/><rect x="798" y="198" width="50" height="50" fill="#1f1d22"/><rect x="48" y="248" width="50" height="50" fill="#1f1d22"/><rect x="798" y="248" width="50" height="50" fill="#1f1d22"/><rect x="48" y="298" width="50" height="50" fill="#1f1d22"/><rect x="798" y="298" width="50" height="50" fill="#1f1d22"/><rect x="48" y="348" width="50" height="50" fill="#1f1d22"/><rect x="798" y="348" width="50" height="50" fill="#1f1d22"/><rect x="48" y="398" width="50" height="50" fill="#1f1d22"/><rect x="798" y="398" width="50" height="50" fill="#1f1d22"/><rect x="48" y="448" width="50" height="50" fill="#1f1d22"/><rect x="798" y="448" width="50" height="50" fill="#1f1d22"/><rect x="48" y="498" width="50" height="50" fill="#1f1d22"/><rect x="798" y="498" width="50" height="50" fill="#1f1d22"/><rect x="48" y="548" width="50" height="50" fill="#1f1d22"/><rect x="798" y="548" width="50" height="50" fill="#1f1d22"/><rect x="48" y="598" width="50" height="50" fill="#1f1d22"/><rect x="98" y="598" width="50" height="50" fill="#1f1d22"/><rect x="148" y="598" width="50" height="50" fill="#1f1d22"/><rect x="198" y="598" width="50" height="50" fill="#1f1d22"/><rect x="298" y="598" width="50" height="50" fill="#1f1d22"/><rect x="348" y="598" width="50" height="50" fill="#1f1d22"/><rect x="398" y="598" width="50" height="50" fill="#1f1d22"/><rect x="448" y="598" width="50" height="50" fill="#1f1d22"/><rect x="498" y="598" width="50" height="50" fill="#1f1d22"/><rect x="548" y="598" width="50" height="50" fill="#1f1d22"/><rect x="598" y="598" width="50" height="50" fill="#1f1d22"/><rect x="648" y="598" width="50" height="50" fill="#1f1d22"/><rect x="698" y="598" width="50" height="50" fill="#1f1d22"/><rect x="748" y="598" width="50" height="50" fill="#1f1d22"/><rect x="798" y="598" width="50" height="50" fill="#1f1d22"/><rect x="148" y="98" width="50" height="50" fill="#5a5660"/><rect x="198" y="98" width="50" height="50" fill="#5a5660"/><rect x="448" y="98" width="50" height="50" fill="#5a5660"/><rect x="498" y="98" width="50" height="50" fill="#5a5660"/><rect x="698" y="98" width="50" height="50" fill="#5a5660"/><rect x="748" y="98" width="50" height="50" fill="#5a5660"/><rect x="198" y="298" width="50" height="50" fill="#5a5660"/><rect x="398" y="298" width="50" height="50" fill="#5a5660"/><rect x="598" y="298" width="50" height="50" fill="#5a5660"/><rect x="198" y="348" width="50" height="50" fill="#5a5660"/><rect x="398" y="348" width="50" height="50" fill="#5a5660"/><rect x="598" y="348" width="50" height="50" fill="#5a5660"/><rect x="198" y="398" width="50" height="50" fill="#5a5660"/><rect x="398" y="398" width="50" height="50" fill="#5a5660"/><rect x="598" y="398" width="50" height="50" fill="#5a5660"/><rect x="598" y="448" width="50" height="50" fill="#5a5660"/><rect x="648" y="448" width="50" height="50" fill="#5a5660"/><rect x="698" y="448" width="50" height="50" fill="#5a5660"/><rect x="598" y="498" width="50" height="50" fill="#5a5660"/><rect x="598" y="548" width="50" height="50" fill="#5a5660"/><rect x="248" y="48" width="50" height="50" fill="#cdbfa4"/><rect x="448" y="198" width="50" height="50" fill="#cdbfa4"/><rect x="498" y="198" width="50" height="50" fill="#cdbfa4"/><rect x="248" y="598" width="50" height="50" fill="#cdbfa4"/><path d="M260.5 50v46M273 50v46M285.5 50v46M460.5 200v46M473 200v46M485.5 200v46M510.5 200v46M523 200v46M535.5 200v46M260.5 600v46M273 600v46M285.5 600v46" stroke="#b8892a" stroke-width="1" fill="none" stroke-linecap="round" stroke-linejoin="round" opacity=".7"/><path d="M48 65h50M48 82h50M60 48v17M85 65v17M60 82v16M98 65h50M98 82h50M135 48v17M110 65v17M135 82v16M148 65h50M148 82h50M160 48v17M185 65v17M160 82v16M198 65h50M198 82h50M235 48v17M210 65v17M235 82v16M298 65h50M298 82h50M335 48v17M310 65v17M335 82v16M348 65h50M348 82h50M360 48v17M385 65v17M360 82v16M398 65h50M398 82h50M435 48v17M410 65v17M435 82v16M448 65h50M448 82h50M460 48v17M485 65v17M460 82v16M498 65h50M498 82h50M535 48v17M510 65v17M535 82v16M548 65h50M548 82h50M560 48v17M585 65v17M560 82v16M598 65h50M598 82h50M635 48v17M610 65v17M635 82v16M648 65h50M648 82h50M660 48v17M685 65v17M660 82v16M698 65h50M698 82h50M735 48v17M710 65v17M735 82v16M748 65h50M748 82h50M760 48v17M785 65v17M760 82v16M798 65h50M798 82h50M835 48v17M810 65v17M835 82v16M48 115h50M48 132h50M85 98v17M60 115v17M85 132v16M798 115h50M798 132h50M810 98v17M835 115v17M810 132v16M48 165h50M48 182h50M60 148v17M85 165v17M60 182v16M798 165h50M798 182h50M835 148v17M810 165v17M835 182v16M48 215h50M48 232h50M85 198v17M60 215v17M85 232v16M98 215h50M98 232h50M110 198v17M135 215v17M110 232v16M148 215h50M148 232h50M185 198v17M160 215v17M185 232v16M198 215h50M198 232h50M210 198v17M235 215v17M210 232v16M248 215h50M248 232h50M285 198v17M260 215v17M285 232v16M298 215h50M298 232h50M310 198v17M335 215v17M310 232v16M348 215h50M348 232h50M385 198v17M360 215v17M385 232v16M398 215h50M398 232h50M410 198v17M435 215v17M410 232v16M548 215h50M548 232h50M585 198v17M560 215v17M585 232v16M598 215h50M598 232h50M610 198v17M635 215v17M610 232v16M648 215h50M648 232h50M685 198v17M660 215v17M685 232v16M698 215h50M698 232h50M710 198v17M735 215v17M710 232v16M748 215h50M748 232h50M785 198v17M760 215v17M785 232v16M798 215h50M798 232h50M810 198v17M835 215v17M810 232v16M48 265h50M48 282h50M60 248v17M85 265v17M60 282v16M798 265h50M798 282h50M835 248v17M810 265v17M835 282v16M48 315h50M48 332h50M85 298v17M60 315v17M85 332v16M798 315h50M798 332h50M810 298v17M835 315v17M810 332v16M48 365h50M48 382h50M60 348v17M85 365v17M60 382v16M798 365h50M798 382h50M835 348v17M810 365v17M835 382v16M48 415h50M48 432h50M85 398v17M60 415v17M85 432v16M798 415h50M798 432h50M810 398v17M835 415v17M810 432v16M48 465h50M48 482h50M60 448v17M85 465v17M60 482v16M798 465h50M798 482h50M835 448v17M810 465v17M835 482v16M48 515h50M48 532h50M85 498v17M60 515v17M85 532v16M798 515h50M798 532h50M810 498v17M835 515v17M810 532v16M48 565h50M48 582h50M60 548v17M85 565v17M60 582v16M798 565h50M798 582h50M835 548v17M810 565v17M835 582v16M48 615h50M48 632h50M85 598v17M60 615v17M85 632v16M98 615h50M98 632h50M110 598v17M135 615v17M110 632v16M148 615h50M148 632h50M185 598v17M160 615v17M185 632v16M198 615h50M198 632h50M210 598v17M235 615v17M210 632v16M298 615h50M298 632h50M310 598v17M335 615v17M310 632v16M348 615h50M348 632h50M385 598v17M360 615v17M385 632v16M398 615h50M398 632h50M410 598v17M435 615v17M410 632v16M448 615h50M448 632h50M485 598v17M460 615v17M485 632v16M498 615h50M498 632h50M510 598v17M535 615v17M510 632v16M548 615h50M548 632h50M585 598v17M560 615v17M585 632v16M598 615h50M598 632h50M610 598v17M635 615v17M610 632v16M648 615h50M648 632h50M685 598v17M660 615v17M685 632v16M698 615h50M698 632h50M710 598v17M735 615v17M710 632v16M748 615h50M748 632h50M785 598v17M760 615v17M785 632v16M798 615h50M798 632h50M810 598v17M835 615v17M810 632v16" stroke="#36343a" stroke-width="1.2" fill="none" stroke-linecap="round" stroke-linejoin="round"/><path d="M102 116l14 -14M102 132l30 -30M102 146l44 -44M116 146l30 -30M132 146l14 -14M252 116l14 -14M252 132l30 -30M252 146l44 -44M266 146l30 -30M282 146l14 -14M302 116l14 -14M302 132l30 -30M302 146l44 -44M316 146l30 -30M332 146l14 -14M352 116l14 -14M352 132l30 -30M352 146l44 -44M366 146l30 -30M382 146l14 -14M402 116l14 -14M402 132l30 -30M402 146l44 -44M416 146l30 -30M432 146l14 -14M552 116l14 -14M552 132l30 -30M552 146l44 -44M566 146l30 -30M582 146l14 -14M602 116l14 -14M602 132l30 -30M602 146l44 -44M616 146l30 -30M632 146l14 -14M652 116l14 -14M652 132l30 -30M652 146l44 -44M666 146l30 -30M682 146l14 -14M102 166l14 -14M102 182l30 -30M102 196l44 -44M116 196l30 -30M132 196l14 -14M152 166l14 -14M152 182l30 -30M152 196l44 -44M166 196l30 -30M182 196l14 -14M202 166l14 -14M202 182l30 -30M202 196l44 -44M216 196l30 -30M232 196l14 -14M252 166l14 -14M252 182l30 -30M252 196l44 -44M266 196l30 -30M282 196l14 -14M302 166l14 -14M302 182l30 -30M302 196l44 -44M316 196l30 -30M332 196l14 -14M352 166l14 -14M352 182l30 -30M352 196l44 -44M366 196l30 -30M382 196l14 -14M402 166l14 -14M402 182l30 -30M402 196l44 -44M416 196l30 -30M432 196l14 -14M452 166l14 -14M452 182l30 -30M452 196l44 -44M466 196l30 -30M482 196l14 -14M502 166l14 -14M502 182l30 -30M502 196l44 -44M516 196l30 -30M532 196l14 -14M552 166l14 -14M552 182l30 -30M552 196l44 -44M566 196l30 -30M582 196l14 -14M602 166l14 -14M602 182l30 -30M602 196l44 -44M616 196l30 -30M632 196l14 -14M652 166l14 -14M652 182l30 -30M652 196l44 -44M666 196l30 -30M682 196l14 -14M702 166l14 -14M702 182l30 -30M702 196l44 -44M716 196l30 -30M732 196l14 -14M752 166l14 -14M752 182l30 -30M752 196l44 -44M766 196l30 -30M782 196l14 -14" stroke="#141216" stroke-width="1.4" fill="none" stroke-linecap="round" stroke-linejoin="round" opacity=".4"/><path d="M152 143H198M198 143H244M452 143H498M498 143H544M702 143H748M748 143H794M202 443H244M402 443H444M648 493H698M698 493H744M602 593H644" stroke="#36343a" stroke-width="3" fill="none" stroke-linecap="round" stroke-linejoin="round"/><rect x="248" y="66" width="50" height="14" fill="#36343a" stroke="#141216" stroke-width="1.8"/><rect x="155" y="105" width="36" height="36" rx="7" fill="#36343a" stroke="#141216" stroke-width="1.6"/><ellipse cx="164" cy="116" rx="3" ry="1.8" fill="#cdbfa4"/><ellipse cx="178" cy="113" rx="3" ry="1.8" fill="#cdbfa4"/><ellipse cx="172" cy="126" rx="3" ry="1.8" fill="#cdbfa4"/><ellipse cx="182" cy="130" rx="3" ry="1.8" fill="#cdbfa4"/><ellipse cx="163" cy="132" rx="3" ry="1.8" fill="#cdbfa4"/><rect x="205" y="105" width="36" height="36" rx="7" fill="#36343a" stroke="#141216" stroke-width="1.6"/><ellipse cx="214" cy="116" rx="3" ry="1.8" fill="#cdbfa4"/><ellipse cx="228" cy="113" rx="3" ry="1.8" fill="#cdbfa4"/><ellipse cx="222" cy="126" rx="3" ry="1.8" fill="#cdbfa4"/><ellipse cx="232" cy="130" rx="3" ry="1.8" fill="#cdbfa4"/><ellipse cx="213" cy="132" rx="3" ry="1.8" fill="#cdbfa4"/><rect x="455" y="105" width="36" height="36" rx="7" fill="#36343a" stroke="#141216" stroke-width="1.6"/><ellipse cx="464" cy="116" rx="3" ry="1.8" fill="#cdbfa4"/><ellipse cx="478" cy="113" rx="3" ry="1.8" fill="#cdbfa4"/><ellipse cx="472" cy="126" rx="3" ry="1.8" fill="#cdbfa4"/><ellipse cx="482" cy="130" rx="3" ry="1.8" fill="#cdbfa4"/><ellipse cx="463" cy="132" rx="3" ry="1.8" fill="#cdbfa4"/><rect x="505" y="105" width="36" height="36" rx="7" fill="#36343a" stroke="#141216" stroke-width="1.6"/><ellipse cx="514" cy="116" rx="3" ry="1.8" fill="#cdbfa4"/><ellipse cx="528" cy="113" rx="3" ry="1.8" fill="#cdbfa4"/><ellipse cx="522" cy="126" rx="3" ry="1.8" fill="#cdbfa4"/><ellipse cx="532" cy="130" rx="3" ry="1.8" fill="#cdbfa4"/><ellipse cx="513" cy="132" rx="3" ry="1.8" fill="#cdbfa4"/><rect x="705" y="105" width="36" height="36" rx="7" fill="#36343a" stroke="#141216" stroke-width="1.6"/><ellipse cx="714" cy="116" rx="3" ry="1.8" fill="#cdbfa4"/><ellipse cx="728" cy="113" rx="3" ry="1.8" fill="#cdbfa4"/><ellipse cx="722" cy="126" rx="3" ry="1.8" fill="#cdbfa4"/><ellipse cx="732" cy="130" rx="3" ry="1.8" fill="#cdbfa4"/><ellipse cx="713" cy="132" rx="3" ry="1.8" fill="#cdbfa4"/><rect x="755" y="105" width="36" height="36" rx="7" fill="#36343a" stroke="#141216" stroke-width="1.6"/><ellipse cx="764" cy="116" rx="3" ry="1.8" fill="#cdbfa4"/><ellipse cx="778" cy="113" rx="3" ry="1.8" fill="#cdbfa4"/><ellipse cx="772" cy="126" rx="3" ry="1.8" fill="#cdbfa4"/><ellipse cx="782" cy="130" rx="3" ry="1.8" fill="#cdbfa4"/><ellipse cx="763" cy="132" rx="3" ry="1.8" fill="#cdbfa4"/><rect x="248" y="616" width="50" height="14" fill="#36343a" stroke="#141216" stroke-width="1.8"/><path d="M48 48V648M98 48V648M148 48V648M198 48V648M248 48V648M298 48V648M348 48V648M398 48V648M448 48V648M498 48V648M548 48V648M598 48V648M648 48V648M698 48V648M748 48V648M798 48V648M848 48V648M48 48H848M48 98H848M48 148H848M48 198H848M48 248H848M48 298H848M48 348H848M48 398H848M48 448H848M48 498H848M48 548H848M48 598H848M48 648H848" stroke="#141216" stroke-width="1.3" fill="none" stroke-linecap="round" stroke-linejoin="round" opacity=".35"/><path d="M98 98H148M148 98H198M248 48V98M198 98H248M298 48V98M298 98H348M348 98H398M398 98H448M448 98H498M498 98H548M548 98H598M598 98H648M648 98H698M698 98H748M748 98H798M98 98V148M148 98V148M148 148H198M248 98V148M198 148H248M448 98V148M448 148H498M548 98V148M498 148H548M698 98V148M698 148H748M798 98V148M748 148H798M98 148V198M98 198H148M148 198H198M198 198H248M248 198H298M298 198H348M348 198H398M398 198H448M548 198H598M598 198H648M648 198H698M698 198H748M798 148V198M748 198H798M98 248H148M148 248H198M198 248H248M248 248H298M298 248H348M348 248H398M448 198V248M398 248H448M548 198V248M548 248H598M598 248H648M648 248H698M698 248H748M748 248H798M98 248V298M198 298H248M398 298H448M598 298H648M798 248V298M98 298V348M198 298V348M248 298V348M398 298V348M448 298V348M598 298V348M648 298V348M798 298V348M98 348V398M198 348V398M248 348V398M398 348V398M448 348V398M598 348V398M648 348V398M798 348V398M98 398V448M198 398V448M248 398V448M198 448H248M398 398V448M448 398V448M398 448H448M598 398V448M648 398V448M648 448H698M698 448H748M798 398V448M98 448V498M598 448V498M648 498H698M748 448V498M698 498H748M798 448V498M98 498V548M598 498V548M648 498V548M798 498V548M98 548V598M98 598H148M148 598H198M198 598H248M298 598H348M348 598H398M398 598H448M448 598H498M498 598H548M598 548V598M548 598H598M648 548V598M598 598H648M648 598H698M698 598H748M798 548V598M748 598H798M248 598V648M298 598V648" fill="none" stroke="#141216" stroke-width="3" stroke-linecap="square"/><rect x="48" y="48" width="800" height="600" fill="none" stroke="#141216" stroke-width="3.4"/><rect x="653" y="354" width="90" height="88" rx="3" fill="#f3eee4" stroke="#141216" stroke-width="2.6"/><rect x="660" y="356" width="81" height="80" rx="2" fill="none" stroke="#36343a" stroke-width="1.8" stroke-dasharray="7 4"/><path d="M661 374l14 -10M717 432l16 -11" stroke="#cdbfa4" stroke-width="2.2" fill="none" stroke-linecap="round" stroke-linejoin="round"/><circle cx="698" cy="398" r="17" fill="#8f1d1d" stroke="#141216" stroke-width="2.4"/><text x="698" y="405.5" font-family="'Alegreya Sans', 'Segoe UI', sans-serif" font-size="21" font-weight="bold" fill="#f3eee4" text-anchor="middle">S</text><circle cx="223" cy="523" r="23" fill="#f3eee4" stroke="#141216" stroke-width="2.4"/><path d="M240 523L246 523M237.7 531.5L242.9 534.5M231.5 537.7L234.5 542.9M223 540L223 546M214.5 537.7L211.5 542.9M208.3 531.5L203.1 534.5M206 523L200 523M208.3 514.5L203.1 511.5M214.5 508.3L211.5 503.1M223 506L223 500M231.5 508.3L234.5 503.1M237.7 514.5L242.9 511.5" stroke="#141216" stroke-width="1.6" fill="none" stroke-linecap="round" stroke-linejoin="round"/><circle cx="223" cy="523" r="17" fill="#8f1d1d" stroke="#141216" stroke-width="2.4"/><text x="223" y="530.5" font-family="'Alegreya Sans', 'Segoe UI', sans-serif" font-size="21" font-weight="bold" fill="#f3eee4" text-anchor="middle">P</text><rect x="207" y="410" width="32" height="24" rx="3" fill="#f3eee4" stroke="#141216" stroke-width="1.8"/><path d="M210 422h26" stroke="#cdbfa4" stroke-width="1.4" fill="none" stroke-linecap="round" stroke-linejoin="round"/><rect x="610" y="556" width="26" height="34" rx="2" fill="#e6dccb" stroke="#141216" stroke-width="1.8"/><circle cx="623" cy="568" r="5" fill="#cdbfa4" stroke="#141216" stroke-width="1.2"/><circle cx="623" cy="580" r="5" fill="#cdbfa4" stroke="#141216" stroke-width="1.2"/><circle cx="723" cy="573" r="23" fill="#f0cf6b" opacity=".5"/><rect x="704" y="555" width="38" height="36" rx="4" fill="#b8892a" stroke="#141216" stroke-width="2.4"/><ellipse cx="713" cy="565" rx="3.2" ry="1.9" fill="#141216"/><ellipse cx="724" cy="563" rx="3.2" ry="1.9" fill="#141216"/><ellipse cx="733" cy="567" rx="3.2" ry="1.9" fill="#141216"/><ellipse cx="716" cy="576" rx="3.2" ry="1.9" fill="#141216"/><ellipse cx="728" cy="577" rx="3.2" ry="1.9" fill="#141216"/><ellipse cx="735" cy="580" rx="3.2" ry="1.9" fill="#141216"/><ellipse cx="720" cy="585" rx="3.2" ry="1.9" fill="#141216"/><path d="M723 565L773 523L773 273L523 273L498 173L273 173L273 84" fill="none" stroke="#141216" stroke-width="7.5" stroke-dasharray="13 8" stroke-linecap="butt" stroke-linejoin="round"/><path d="M723 565L773 523L773 273L523 273L498 173L273 173L273 84" fill="none" stroke="#f0cf6b" stroke-width="3.6" stroke-dasharray="13 8" stroke-linecap="butt" stroke-linejoin="round"/><path d="M273 80L263 101L283 101Z" fill="#f0cf6b" stroke="#141216" stroke-width="2" stroke-linejoin="round"/><path d="M265 39L273 51L281 39Z" fill="#b8892a" stroke="#141216" stroke-width="2" stroke-linejoin="round"/><circle cx="273" cy="24" r="17" fill="#f0cf6b" stroke="#141216" stroke-width="2.4"/><text x="273" y="31.5" font-family="'Alegreya Sans', 'Segoe UI', sans-serif" font-size="21" font-weight="bold" fill="#141216" text-anchor="middle">A</text><path d="M265 657L273 645L281 657Z" fill="#b8892a" stroke="#141216" stroke-width="2" stroke-linejoin="round"/><circle cx="273" cy="672" r="17" fill="#f0cf6b" stroke="#141216" stroke-width="2.4"/><text x="273" y="679.5" font-family="'Alegreya Sans', 'Segoe UI', sans-serif" font-size="21" font-weight="bold" fill="#141216" text-anchor="middle">B</text><circle cx="373" cy="123" r="17" fill="#f3eee4" stroke="#141216" stroke-width="2.6"/><text x="373" y="131" font-family="'Alegreya Sans', 'Segoe UI', sans-serif" font-size="23" font-weight="bold" fill="#141216" text-anchor="middle">1</text><circle cx="573" cy="373" r="17" fill="#f3eee4" stroke="#141216" stroke-width="2.6"/><text x="573" y="381" font-family="'Alegreya Sans', 'Segoe UI', sans-serif" font-size="23" font-weight="bold" fill="#141216" text-anchor="middle">2</text><circle cx="373" cy="523" r="17" fill="#f3eee4" stroke="#141216" stroke-width="2.6"/><text x="373" y="531" font-family="'Alegreya Sans', 'Segoe UI', sans-serif" font-size="23" font-weight="bold" fill="#141216" text-anchor="middle">3</text><circle cx="673" cy="527" r="17" fill="#f3eee4" stroke="#8f1d1d" stroke-width="3" stroke-dasharray="5 3.5"/><text x="673" y="535" font-family="'Alegreya Sans', 'Segoe UI', sans-serif" font-size="23" font-weight="bold" fill="#8f1d1d" text-anchor="middle">4</text><rect x="748" y="308" width="46" height="30" rx="15" fill="#1f1d22" stroke="#f3eee4" stroke-width="1.6"/><text x="771" y="330" font-family="'Alegreya Sans', 'Segoe UI', sans-serif" font-size="19" font-weight="bold" fill="#f3eee4" text-anchor="middle">E1</text><rect x="600" y="158" width="46" height="30" rx="15" fill="#1f1d22" stroke="#f3eee4" stroke-width="1.6"/><text x="623" y="180" font-family="'Alegreya Sans', 'Segoe UI', sans-serif" font-size="19" font-weight="bold" fill="#f3eee4" text-anchor="middle">E2</text>
</svg>
