<svg xmlns="http://www.w3.org/2000/svg" viewBox="0 0 900 420" role="img" aria-label="The crew plans the job around a blueprint">
<title>The crew plans the job around a blueprint</title>
<defs><radialGradient id="p1-glow" cx="50%" cy="50%" r="50%"><stop offset="0" stop-color="#eaddbe"/><stop offset=".6" stop-color="#eaddbe" stop-opacity=".75"/><stop offset="1" stop-color="#eaddbe" stop-opacity="0"/></radialGradient></defs><ellipse cx="450" cy="210" rx="432" ry="210" fill="url(#p1-glow)"/><defs><linearGradient id="p1-lamp" x1="0" y1="0" x2="0" y2="1"><stop offset="0" stop-color="#f0cf6b" stop-opacity=".55"/><stop offset="1" stop-color="#f0cf6b" stop-opacity="0"/></linearGradient></defs><path d="M396 58L180 372H720L504 58z" fill="url(#p1-lamp)" opacity=".7"/><path d="M40 372H860" stroke="#2a1c30" stroke-width="3" stroke-linecap="round"/><path d="M60 378l-8 10M72 378l-8 10M84 378l-8 10M96 378l-8 10M108 378l-8 10M120 378l-8 10M132 378l-8 10M144 378l-8 10M156 378l-8 10M168 378l-8 10M180 378l-8 10M192 378l-8 10M204 378l-8 10M216 378l-8 10M228 378l-8 10M240 378l-8 10M252 378l-8 10M264 378l-8 10M276 378l-8 10M288 378l-8 10M300 378l-8 10M312 378l-8 10M324 378l-8 10M336 378l-8 10M348 378l-8 10M360 378l-8 10M372 378l-8 10M384 378l-8 10M396 378l-8 10M408 378l-8 10M420 378l-8 10M432 378l-8 10M444 378l-8 10M456 378l-8 10M468 378l-8 10M480 378l-8 10M492 378l-8 10M504 378l-8 10M516 378l-8 10M528 378l-8 10M540 378l-8 10M552 378l-8 10M564 378l-8 10M576 378l-8 10M588 378l-8 10M600 378l-8 10M612 378l-8 10M624 378l-8 10M636 378l-8 10M648 378l-8 10M660 378l-8 10M672 378l-8 10M684 378l-8 10M696 378l-8 10M708 378l-8 10M720 378l-8 10M732 378l-8 10M744 378l-8 10M756 378l-8 10M768 378l-8 10M780 378l-8 10M792 378l-8 10M804 378l-8 10M816 378l-8 10M828 378l-8 10M840 378l-8 10" stroke="#2a1c30" stroke-width="1.3" fill="none" stroke-linecap="round" stroke-linejoin="round" opacity=".3"/><path d="M236 204L678 204L748 358L166 358Z" fill="#2a1c30" opacity=".25"/><path d="M230 196L672 196L742 350L160 350Z" fill="#3a1348" stroke="#2a1c30" stroke-width="3" stroke-linejoin="round"/><path d="M672 196l18 40q-26 -6 -40 -20z" fill="#5f2470" stroke="#2a1c30" stroke-width="2.4" stroke-linejoin="round"/><path d="M266.8 196L208.5 350M303.7 196L257 350M340.5 196L305.5 350M377.3 196L354 350M414.2 196L402.5 350M451 196L451 350M487.8 196L499.5 350M524.7 196L548 350M561.5 196L596.5 350M598.3 196L645 350M635.2 196L693.5 350M216 226.8L686 226.8M202 257.6L700 257.6M188 288.4L714 288.4M174 319.2L728 319.2" stroke="#7b3a8e" stroke-width="1" fill="none" stroke-linecap="round" stroke-linejoin="round" opacity=".8"/><path d="M270 214H640L690 334H222Z M430 214L420 334M222 274H436M560 214L580 334" stroke="#f6efdd" stroke-width="3" fill="none" stroke-linecap="round" stroke-linejoin="round"/><path d="M330 274h30M600 280l6 14" stroke="#3a1348" stroke-width="5" fill="none" stroke-linecap="round" stroke-linejoin="round"/><path d="M236 330Q300 300 350 296T470 250T600 236" stroke="#f0cf6b" stroke-width="3" fill="none" stroke-linecap="round" stroke-linejoin="round" stroke-dasharray="2 9"/><path d="M590 226l20 20M610 226l-20 20" stroke="#b2364a" stroke-width="5" stroke-linecap="round"/><circle cx="600" cy="236" r="18" fill="none" stroke="#b2364a" stroke-width="2.5" stroke-dasharray="5 4"/><circle cx="330" cy="310" r="14" fill="#7a2231" opacity=".7" stroke="#b2364a" stroke-width="2"/><path d="M322 304l3 -8 4 6h2l4 -6 3 8" fill="none" stroke="#f6efdd" stroke-width="2" stroke-linejoin="round"/><circle cx="326" cy="312" r="1.6" fill="#f6efdd"/><circle cx="334" cy="312" r="1.6" fill="#f6efdd"/><path d="M168 330q2 -26 24 -26t24 26z" fill="#d9c69a" stroke="#2a1c30" stroke-width="2.6"/><path d="M193 324.4h0.01M178.5 315.4h0.01M203.9 319.9h0.01M200 319.8h0.01M178.1 316.1h0.01M183.6 314.4h0.01M178.8 317.1h0.01M200.6 315.6h0.01M187.8 322.4h0.01M185.8 316.3h0.01M188.5 324.9h0.01M202.2 320.9h0.01M189.1 318.2h0.01M182.3 322.5h0.01M187.6 312.2h0.01M187.5 312h0.01M194.3 325.1h0.01M184.1 315.8h0.01M202.6 319.2h0.01M186.4 316.7h0.01M199.2 323.3h0.01M193.6 316.6h0.01M185.6 318h0.01M187.9 313.4h0.01M176.6 318.7h0.01M202.4 314.6h0.01M201.7 321.6h0.01M194 321.9h0.01M189.5 324.8h0.01M191.7 320.1h0.01" stroke="#2a1c30" stroke-width="2" stroke-linecap="round" opacity="0.5"/><ellipse cx="192" cy="331" rx="25" ry="7" fill="#eaddbe" stroke="#2a1c30" stroke-width="2.6"/><ellipse cx="700" cy="330" rx="30" ry="10" fill="#b2364a" stroke="#2a1c30" stroke-width="2.6"/><path d="M670 330v8q30 14 60 0v-8" fill="#7a2231" stroke="#2a1c30" stroke-width="2.6"/><ellipse cx="700" cy="330" rx="20" ry="6" fill="none" stroke="#2a1c30" stroke-width="1.5" opacity=".6"/><g transform="translate(330 176) scale(1.4 1.4)">
<path d="M9 -6L24 -10L29.2 6.5L28 20M12 -2L34 -22L38.1 4.4L36 26M13 3L46 -12L53.4 7.8L54 24M10 7L46 2L58.9 9.7L64 16M-9 -6L-20 -24L-21.3 3.5L-17 26M-12 -2L-34 -22L-38.1 4.4L-36 26M-13 3L-46 -12L-53.4 7.8L-54 24M-10 7L-46 2L-58.9 9.7L-64 16" stroke="#2a1c30" stroke-width="4.4" fill="none" stroke-linecap="round" stroke-linejoin="round"/>
<path d="M9 -6L24 -10L29.2 6.5L28 20M12 -2L34 -22L38.1 4.4L36 26M13 3L46 -12L53.4 7.8L54 24M10 7L46 2L58.9 9.7L64 16M-9 -6L-20 -24L-21.3 3.5L-17 26M-12 -2L-34 -22L-38.1 4.4L-36 26M-13 3L-46 -12L-53.4 7.8L-54 24M-10 7L-46 2L-58.9 9.7L-64 16" stroke="#5f2470" stroke-width="2.2" fill="none" stroke-linecap="round" stroke-linejoin="round"/>
<ellipse cx="0" cy="-22" rx="19" ry="17" fill="#5f2470" stroke="#2a1c30" stroke-width="2.2"/>
<ellipse cx="-6.6" cy="-28.8" rx="7.2" ry="4.4" fill="#7b3a8e" transform="rotate(-25 -6.6 -28.8)"/>
<g fill="#f0cf6b"><circle cx="-6" cy="-25" r="2.2"/><circle cx="6" cy="-25" r="2.2"/><circle cx="-4" cy="-16" r="1.8"/><circle cx="4" cy="-16" r="1.8"/></g>
<ellipse cx="0" cy="0" rx="14.5" ry="12.5" fill="#5f2470" stroke="#2a1c30" stroke-width="2.2"/>
<path d="M-8 -8q8 -5 16 0" stroke="#7b3a8e" stroke-width="2" fill="none" stroke-linecap="round"/>
<path d="M-4.5 10.5q-1.5 4 0.5 5.5M4.5 10.5q1.5 4 -0.5 5.5" stroke="#2a1c30" stroke-width="3.2" fill="none" stroke-linecap="round"/>
<circle cx="-10.8" cy="-5.2" r="1.6" fill="#2a1c30"/><circle cx="-10.3" cy="-5.7" r="0.6" fill="#f0cf6b"/><circle cx="10.8" cy="-5.2" r="1.6" fill="#2a1c30"/><circle cx="11.3" cy="-5.7" r="0.6" fill="#f0cf6b"/><circle cx="-3.2" cy="-8.6" r="1.2" fill="#2a1c30"/><circle cx="-2.8" cy="-9" r="0.5" fill="#f0cf6b"/><circle cx="3.2" cy="-8.6" r="1.2" fill="#2a1c30"/><circle cx="3.6" cy="-9" r="0.5" fill="#f0cf6b"/>
<circle cx="-5.6" cy="-0.2" r="5.1" fill="#f6efdd" stroke="#2a1c30" stroke-width="1.3"/><circle cx="-4.9" cy="1.6" r="3" fill="#2a1c30"/><circle cx="-3.8" cy="0.3" r="1.2" fill="#f0cf6b"/><circle cx="5.6" cy="-0.2" r="5.1" fill="#f6efdd" stroke="#2a1c30" stroke-width="1.3"/><circle cx="6.3" cy="1.6" r="3" fill="#2a1c30"/><circle cx="7.4" cy="0.3" r="1.2" fill="#f0cf6b"/><path d="M-10 -8l7 -1.6M10 -8l-7 -1.6" stroke="#2a1c30" stroke-width="1.8" stroke-linecap="round"/><ellipse cx="0" cy="8" rx="1.8" ry="2.2" fill="#2a1c30"/><path d="M-14 -10h28" stroke="#2a1c30" stroke-width="2.4"/><circle cx="-6" cy="-11" r="4.2" fill="#f0cf6b" stroke="#2a1c30" stroke-width="1.8"/><circle cx="6" cy="-11" r="4.2" fill="#f0cf6b" stroke="#2a1c30" stroke-width="1.8"/></g><path d="M383 233.1L397.3 257.8" stroke="#2a1c30" stroke-width="9.24" fill="none" stroke-linecap="round" stroke-linejoin="round"/><path d="M384.5 235.7L396.8 256.9" stroke="#7a2231" stroke-width="4.84" fill="none" stroke-linecap="round" stroke-linejoin="round"/><circle cx="372" cy="214" r="22" fill="#f6efdd" fill-opacity=".45" stroke="#2a1c30" stroke-width="7.5"/><circle cx="372" cy="214" r="22" fill="none" stroke="#b8892a" stroke-width="3.5"/><path d="M361 209.6q4.4 -8.8 11 -9.9" stroke="#f6efdd" stroke-width="2.6399999999999997" fill="none" stroke-linecap="round" stroke-linejoin="round"/><g transform="translate(548 170) scale(1.45 1.45)">
<path d="M9 -6L26 -18L34.5 13.9L36 40M12 -2L34 -22L38.1 4.4L36 26M13 3L46 -12L53.4 7.8L54 24M10 7L46 2L58.9 9.7L64 16M-9 -6L-20 -24L-21.3 3.5L-17 26M-12 -2L-34 -22L-38.1 4.4L-36 26M-13 3L-46 -12L-53.4 7.8L-54 24M-10 7L-46 2L-58.9 9.7L-64 16" stroke="#2a1c30" stroke-width="4.4" fill="none" stroke-linecap="round" stroke-linejoin="round"/>
<path d="M9 -6L26 -18L34.5 13.9L36 40M12 -2L34 -22L38.1 4.4L36 26M13 3L46 -12L53.4 7.8L54 24M10 7L46 2L58.9 9.7L64 16M-9 -6L-20 -24L-21.3 3.5L-17 26M-12 -2L-34 -22L-38.1 4.4L-36 26M-13 3L-46 -12L-53.4 7.8L-54 24M-10 7L-46 2L-58.9 9.7L-64 16" stroke="#5f2470" stroke-width="2.2" fill="none" stroke-linecap="round" stroke-linejoin="round"/>
<ellipse cx="0" cy="-22" rx="19" ry="17" fill="#5f2470" stroke="#2a1c30" stroke-width="2.2"/>
<ellipse cx="-6.6" cy="-28.8" rx="7.2" ry="4.4" fill="#7b3a8e" transform="rotate(-25 -6.6 -28.8)"/>
<path d="M-8 -26l8 6 8-6M-6 -18l6 5 6-5" stroke="#f0cf6b" stroke-width="2.2" fill="none" stroke-linecap="round" stroke-linejoin="round"/>
<ellipse cx="0" cy="0" rx="14.5" ry="12.5" fill="#5f2470" stroke="#2a1c30" stroke-width="2.2"/>
<path d="M-8 -8q8 -5 16 0" stroke="#7b3a8e" stroke-width="2" fill="none" stroke-linecap="round"/>
<path d="M-4.5 10.5q-1.5 4 0.5 5.5M4.5 10.5q1.5 4 -0.5 5.5" stroke="#2a1c30" stroke-width="3.2" fill="none" stroke-linecap="round"/>
<path d="M-15.5 -5.5q15.5 -5 31 0l0.5 7q-16 5 -32 0z" fill="#2a1c30"/><path d="M15.5 -3l6 -4M15.5 -1l6 2" stroke="#2a1c30" stroke-width="1.6" stroke-linecap="round"/><circle cx="-10.8" cy="-5.2" r="1.6" fill="#2a1c30"/><circle cx="-10.3" cy="-5.7" r="0.6" fill="#f0cf6b"/><circle cx="10.8" cy="-5.2" r="1.6" fill="#2a1c30"/><circle cx="11.3" cy="-5.7" r="0.6" fill="#f0cf6b"/><circle cx="-3.2" cy="-8.6" r="1.2" fill="#2a1c30"/><circle cx="-2.8" cy="-9" r="0.5" fill="#f0cf6b"/><circle cx="3.2" cy="-8.6" r="1.2" fill="#2a1c30"/><circle cx="3.6" cy="-9" r="0.5" fill="#f0cf6b"/>
<circle cx="-5.6" cy="-0.2" r="5.1" fill="#f6efdd" stroke="#2a1c30" stroke-width="1.3"/><circle cx="-4.5" cy="1.2" r="3" fill="#2a1c30"/><circle cx="-3.4" cy="0" r="1.2" fill="#f0cf6b"/><circle cx="5.6" cy="-0.2" r="5.1" fill="#f6efdd" stroke="#2a1c30" stroke-width="1.3"/><circle cx="6.7" cy="1.2" r="3" fill="#2a1c30"/><circle cx="7.8" cy="0" r="1.2" fill="#f0cf6b"/><path d="M-10 -7.8l7 2.2M10 -7.8l-7 2.2" stroke="#2a1c30" stroke-width="1.8" stroke-linecap="round"/><path d="M-2.5 7.8q3 1.6 6-1.2" stroke="#2a1c30" stroke-width="1.4" fill="none" stroke-linecap="round"/></g><g transform="translate(112 300) scale(1.5 1.5)">
<path d="M9 -6L26 -26L42.2 -15L50 -6M12 -2L34 -22L38.1 4.4L36 26M13 3L46 -12L53.4 7.8L54 24M10 7L46 2L58.9 9.7L64 16M-9 -6L-20 -24L-21.3 3.5L-17 26M-12 -2L-34 -22L-38.1 4.4L-36 26M-13 3L-46 -12L-53.4 7.8L-54 24M-10 7L-46 2L-58.9 9.7L-64 16" stroke="#2a1c30" stroke-width="4.4" fill="none" stroke-linecap="round" stroke-linejoin="round"/>
<path d="M9 -6L26 -26L42.2 -15L50 -6M12 -2L34 -22L38.1 4.4L36 26M13 3L46 -12L53.4 7.8L54 24M10 7L46 2L58.9 9.7L64 16M-9 -6L-20 -24L-21.3 3.5L-17 26M-12 -2L-34 -22L-38.1 4.4L-36 26M-13 3L-46 -12L-53.4 7.8L-54 24M-10 7L-46 2L-58.9 9.7L-64 16" stroke="#5f2470" stroke-width="2.2" fill="none" stroke-linecap="round" stroke-linejoin="round"/>
<ellipse cx="0" cy="-22" rx="19" ry="17" fill="#5f2470" stroke="#2a1c30" stroke-width="2.2"/>
<ellipse cx="-6.6" cy="-28.8" rx="7.2" ry="4.4" fill="#7b3a8e" transform="rotate(-25 -6.6 -28.8)"/>
<path d="M0 -30l2.4 5 5.4.6-4 3.7 1.1 5.3-4.9-2.7-4.9 2.7 1.1-5.3-4-3.7 5.4-.6z" fill="#f0cf6b"/>
<ellipse cx="0" cy="0" rx="14.5" ry="12.5" fill="#5f2470" stroke="#2a1c30" stroke-width="2.2"/>
<path d="M-8 -8q8 -5 16 0" stroke="#7b3a8e" stroke-width="2" fill="none" stroke-linecap="round"/>
<path d="M-4.5 10.5q-1.5 4 0.5 5.5M4.5 10.5q1.5 4 -0.5 5.5" stroke="#2a1c30" stroke-width="3.2" fill="none" stroke-linecap="round"/>
<circle cx="-10.8" cy="-5.2" r="1.6" fill="#2a1c30"/><circle cx="-10.3" cy="-5.7" r="0.6" fill="#f0cf6b"/><circle cx="10.8" cy="-5.2" r="1.6" fill="#2a1c30"/><circle cx="11.3" cy="-5.7" r="0.6" fill="#f0cf6b"/><circle cx="-3.2" cy="-8.6" r="1.2" fill="#2a1c30"/><circle cx="-2.8" cy="-9" r="0.5" fill="#f0cf6b"/><circle cx="3.2" cy="-8.6" r="1.2" fill="#2a1c30"/><circle cx="3.6" cy="-9" r="0.5" fill="#f0cf6b"/>
<circle cx="-5.6" cy="-0.2" r="5.1" fill="#f6efdd" stroke="#2a1c30" stroke-width="1.3"/><circle cx="-3.8" cy="0.2" r="3" fill="#2a1c30"/><circle cx="-2.7" cy="-1.1" r="1.2" fill="#f0cf6b"/><circle cx="5.6" cy="-0.2" r="5.1" fill="#f6efdd" stroke="#2a1c30" stroke-width="1.3"/><circle cx="7.4" cy="0.2" r="3" fill="#2a1c30"/><circle cx="8.5" cy="-1.1" r="1.2" fill="#f0cf6b"/><path d="M-3.5 7.2q3.5 3 7 0" stroke="#2a1c30" stroke-width="1.4" fill="none" stroke-linecap="round"/><path d="M-17 -10q17 -4 34 0" stroke="#2a1c30" stroke-width="3" fill="none" stroke-linecap="round"/><path d="M-10 -11q-1 -9 3 -10q3 2 7 0q4 1 3 10z" fill="#2a1c30"/><path d="M-10 -13h19" stroke="#b8892a" stroke-width="1.8"/></g><g transform="translate(150 250) rotate(38)"><rect x="0" y="-4.5" width="9.7" height="9" rx="2" fill="#b2364a" stroke="#2a1c30" stroke-width="2"/><rect x="9.7" y="-4.5" width="6.5" height="9" fill="#d9c69a" stroke="#2a1c30" stroke-width="2"/><rect x="16.2" y="-4.5" width="50.4" height="9" fill="#f0cf6b" stroke="#2a1c30" stroke-width="2"/><path d="M16.2 0H66.6" stroke="#b8892a" stroke-width="2.7"/><path d="M66.6 -4.5L81.2 0L66.6 4.5z" fill="#eaddbe" stroke="#2a1c30" stroke-width="2" stroke-linejoin="round"/><path d="M76.3 -1.4L81.2 0L76.3 1.4z" fill="#2a1c30"/></g><g transform="translate(800 300) scale(1.4 1.4)">
<path d="M9 -6L20 -24L21.4 3.5L17 26M12 -2L34 -22L38.1 4.4L36 26M13 3L46 -12L53.4 7.8L54 24M10 7L46 2L58.9 9.7L64 16M-9 -6L-24 -20L-35.8 -14.5L-40 -10M-12 -2L-34 -22L-38.1 4.4L-36 26M-13 3L-46 -12L-53.4 7.8L-54 24M-10 7L-46 2L-58.9 9.7L-64 16" stroke="#2a1c30" stroke-width="4.4" fill="none" stroke-linecap="round" stroke-linejoin="round"/>
<path d="M9 -6L20 -24L21.4 3.5L17 26M12 -2L34 -22L38.1 4.4L36 26M13 3L46 -12L53.4 7.8L54 24M10 7L46 2L58.9 9.7L64 16M-9 -6L-24 -20L-35.8 -14.5L-40 -10M-12 -2L-34 -22L-38.1 4.4L-36 26M-13 3L-46 -12L-53.4 7.8L-54 24M-10 7L-46 2L-58.9 9.7L-64 16" stroke="#7b3a8e" stroke-width="2.2" fill="none" stroke-linecap="round" stroke-linejoin="round"/>
<ellipse cx="0" cy="-22" rx="19" ry="17" fill="#7b3a8e" stroke="#2a1c30" stroke-width="2.2"/>
<ellipse cx="-6.6" cy="-28.8" rx="7.2" ry="4.4" fill="#d9c69a" transform="rotate(-25 -6.6 -28.8)"/>
<path d="M-14 -24q14 -6 28 0M-13 -16q13 -5 26 0" stroke="#f0cf6b" stroke-width="2.2" fill="none" stroke-linecap="round"/>
<ellipse cx="0" cy="0" rx="14.5" ry="12.5" fill="#7b3a8e" stroke="#2a1c30" stroke-width="2.2"/>
<path d="M-8 -8q8 -5 16 0" stroke="#d9c69a" stroke-width="2" fill="none" stroke-linecap="round"/>
<path d="M-4.5 10.5q-1.5 4 0.5 5.5M4.5 10.5q1.5 4 -0.5 5.5" stroke="#2a1c30" stroke-width="3.2" fill="none" stroke-linecap="round"/>
<circle cx="-10.8" cy="-5.2" r="1.6" fill="#2a1c30"/><circle cx="-10.3" cy="-5.7" r="0.6" fill="#f0cf6b"/><circle cx="10.8" cy="-5.2" r="1.6" fill="#2a1c30"/><circle cx="11.3" cy="-5.7" r="0.6" fill="#f0cf6b"/><circle cx="-3.2" cy="-8.6" r="1.2" fill="#2a1c30"/><circle cx="-2.8" cy="-9" r="0.5" fill="#f0cf6b"/><circle cx="3.2" cy="-8.6" r="1.2" fill="#2a1c30"/><circle cx="3.6" cy="-9" r="0.5" fill="#f0cf6b"/>
<circle cx="-5.6" cy="-0.2" r="5.1" fill="#f6efdd" stroke="#2a1c30" stroke-width="1.3"/><circle cx="-7.4" cy="0.3" r="3" fill="#2a1c30"/><circle cx="-6.3" cy="-0.9" r="1.2" fill="#f0cf6b"/><circle cx="5.6" cy="-0.2" r="5.1" fill="#f6efdd" stroke="#2a1c30" stroke-width="1.3"/><circle cx="3.8" cy="0.3" r="3" fill="#2a1c30"/><circle cx="4.9" cy="-0.9" r="1.2" fill="#f0cf6b"/><path d="M-10 -8l7 -1.6M10 -8l-7 -1.6" stroke="#2a1c30" stroke-width="1.8" stroke-linecap="round"/><path d="M-3.5 7.2q3.5 3 7 0" stroke="#2a1c30" stroke-width="1.4" fill="none" stroke-linecap="round"/><path d="M0 13l-6 -3.5v7zM0 13l6 -3.5v7z" fill="#b2364a" stroke="#2a1c30" stroke-width="1.2" stroke-linejoin="round"/><circle cx="0" cy="13" r="1.6" fill="#2a1c30"/></g><path d="M784 274q12 0 12 9t-12 9" fill="none" stroke="#2a1c30" stroke-width="2.4"/><path d="M750 264h34l-3 30h-28z" fill="#f6efdd" stroke="#2a1c30" stroke-width="2.4" stroke-linejoin="round"/><ellipse cx="767" cy="264" rx="17" ry="4" fill="#b8892a" stroke="#2a1c30" stroke-width="2"/><path d="M752 276h30" stroke="#b2364a" stroke-width="3" fill="none" stroke-linecap="round" stroke-linejoin="round"/><path d="M760 256q-4 -10 2 -18M772 256q-4 -10 2 -18" stroke="#2a1c30" stroke-width="1.8" fill="none" stroke-linecap="round" stroke-linejoin="round" opacity=".5"/><path d="M392 60q58 -44 116 0z" fill="#7a2231" stroke="#2a1c30" stroke-width="3" stroke-linejoin="round"/><path d="M396 60h108" stroke="#2a1c30" stroke-width="4" stroke-linecap="round"/><ellipse cx="450" cy="62" rx="30" ry="6" fill="#f0cf6b"/><path d="M450 28V0" stroke="#2a1c30" stroke-width="4" fill="none" stroke-linecap="round" stroke-linejoin="round"/><path d="M420 40q12 -16 34 -18" stroke="#b2364a" stroke-width="3" fill="none" stroke-linecap="round" stroke-linejoin="round"/><path d="M600 199Q601.8 204.2 607 206Q601.8 207.8 600 213Q598.2 207.8 593 206Q598.2 204.2 600 199z" fill="#f0cf6b" stroke="#2a1c30" stroke-width="0.9" stroke-linejoin="round"/><path d="M250 175Q251.3 178.7 255 180Q251.3 181.3 250 185Q248.7 181.3 245 180Q248.7 178.7 250 175z" fill="#f0cf6b" stroke="#2a1c30" stroke-width="0.9" stroke-linejoin="round"/><path d="M820 196Q821 199 824 200Q821 201 820 204Q819 201 816 200Q819 199 820 196z" fill="#f0cf6b" stroke="#2a1c30" stroke-width="0.9" stroke-linejoin="round"/>
</svg>
