<svg xmlns="http://www.w3.org/2000/svg" viewBox="0 0 900 420" role="img" aria-label="A dollhouse cutaway of a location, with its threats marked">
<title>A dollhouse cutaway of a location, with its threats marked</title>
<defs><radialGradient id="p2-glow" cx="50%" cy="50%" r="50%"><stop offset="0" stop-color="#e6dccb"/><stop offset=".6" stop-color="#e6dccb" stop-opacity=".75"/><stop offset="1" stop-color="#e6dccb" stop-opacity="0"/></radialGradient></defs><ellipse cx="450" cy="210" rx="432" ry="210" fill="url(#p2-glow)"/><path d="M60 388H840" stroke="#141216" stroke-width="3" fill="none" stroke-linecap="round" stroke-linejoin="round"/><path d="M76 394l-8 10M88 394l-8 10M100 394l-8 10M112 394l-8 10M124 394l-8 10M136 394l-8 10M148 394l-8 10M160 394l-8 10M172 394l-8 10M184 394l-8 10M196 394l-8 10M208 394l-8 10M220 394l-8 10M232 394l-8 10M244 394l-8 10M256 394l-8 10M268 394l-8 10M280 394l-8 10M292 394l-8 10M304 394l-8 10M316 394l-8 10M328 394l-8 10M340 394l-8 10M352 394l-8 10M364 394l-8 10M376 394l-8 10M388 394l-8 10M400 394l-8 10M412 394l-8 10M424 394l-8 10M436 394l-8 10M448 394l-8 10M460 394l-8 10M472 394l-8 10M484 394l-8 10M496 394l-8 10M508 394l-8 10M520 394l-8 10M532 394l-8 10M544 394l-8 10M556 394l-8 10M568 394l-8 10M580 394l-8 10M592 394l-8 10M604 394l-8 10M616 394l-8 10M628 394l-8 10M640 394l-8 10M652 394l-8 10M664 394l-8 10M676 394l-8 10M688 394l-8 10M700 394l-8 10M712 394l-8 10M724 394l-8 10M736 394l-8 10M748 394l-8 10M760 394l-8 10M772 394l-8 10M784 394l-8 10M796 394l-8 10M808 394l-8 10M820 394l-8 10M832 394l-8 10" stroke="#141216" stroke-width="1.3" fill="none" stroke-linecap="round" stroke-linejoin="round" opacity=".3"/><path d="M180 156L450 26L720 156Z" fill="#8f1d1d" stroke="#141216" stroke-width="3.2" stroke-linejoin="round"/><path d="M400 51.6H500M350 77.2H550M300 102.8H600M250 128.4H650M200 154H700" stroke="#141216" stroke-width="1.6" fill="none" stroke-linecap="round" stroke-linejoin="round" opacity=".35"/><rect x="560" y="40" width="34" height="60" fill="#36343a" stroke="#141216" stroke-width="3"/><rect x="554" y="34" width="46" height="12" fill="#5a5660" stroke="#141216" stroke-width="3"/><rect x="424" y="96" width="52" height="34" rx="3" fill="#1f1d22" stroke="#141216" stroke-width="2.6"/><path d="M428 104h44M428 112h44M428 120h44" stroke="#5a5660" stroke-width="2.4" fill="none" stroke-linecap="round" stroke-linejoin="round"/><rect x="210" y="150" width="480" height="238" fill="#f3eee4" stroke="#141216" stroke-width="4"/><rect x="210" y="150" width="240" height="120" fill="#e6dccb"/><rect x="450" y="150" width="240" height="120" fill="#cdbfa4"/><rect x="210" y="270" width="200" height="118" fill="#cdbfa4"/><rect x="410" y="270" width="280" height="118" fill="#e6dccb"/><path d="M222 154V266M240 154V266M258 154V266M276 154V266M294 154V266M312 154V266M330 154V266M348 154V266M366 154V266M384 154V266M402 154V266M420 154V266M438 154V266" stroke="#b8892a" stroke-width="1.4" fill="none" stroke-linecap="round" stroke-linejoin="round" opacity=".35"/><path d="M584.4 247h0.01M540.7 222.1h0.01M572.7 195.4h0.01M525.8 233.6h0.01M533.1 187.4h0.01M617.2 232.9h0.01M567.5 232.2h0.01M586.4 219.6h0.01M627.6 181h0.01M555.3 205.2h0.01M602 240.9h0.01M591.5 185.5h0.01M538.9 182.1h0.01M534.1 231.1h0.01M604.7 167.4h0.01M536.1 200.7h0.01M643.9 173.6h0.01M503.6 197.6h0.01M507.1 185.4h0.01M498.7 196.7h0.01M499.8 214.5h0.01M502.5 226.7h0.01M538.3 205.5h0.01M523 172.9h0.01M506.1 217.6h0.01M603.7 190.6h0.01M526 190.5h0.01M623.6 233.1h0.01M642 197h0.01M547.6 242.8h0.01M596.5 250.3h0.01M635 240.8h0.01M656.7 213.1h0.01M568.4 211.4h0.01M655.3 221.8h0.01M584.8 224.6h0.01M578.9 249.2h0.01M622.9 251.7h0.01M525 215.8h0.01M658.6 211.2h0.01M497.6 199.5h0.01M604 231.3h0.01M481.9 213.3h0.01M632.2 168.5h0.01M566 199.4h0.01M527.1 236.6h0.01M508.4 239.5h0.01M521.5 199.8h0.01M541.1 235h0.01M539.7 215.6h0.01M579.3 205.9h0.01M543.2 236h0.01M608.4 203.8h0.01M510.4 211.7h0.01M613.5 230.6h0.01M486.9 203.7h0.01M502.9 199.8h0.01M482 191h0.01M520.1 217.2h0.01M532.7 199h0.01M666.1 184.9h0.01M534.4 210.4h0.01M519.4 200.7h0.01M672 237.2h0.01M540.2 189.4h0.01M532.5 183.9h0.01M561.2 172.5h0.01M612.4 192.4h0.01M643.1 242.3h0.01M573.8 196.2h0.01M512 197.3h0.01M678.2 206.5h0.01M664.4 227h0.01M577.4 197.8h0.01M489.2 203.7h0.01M669 234.2h0.01M529.6 237.5h0.01M671.2 194.9h0.01M618.6 196h0.01M552.5 207.7h0.01M607.9 164.9h0.01M633.2 189.2h0.01M488.7 228.1h0.01M587.1 175.5h0.01M642.8 241.9h0.01M538.4 212.2h0.01M496.1 193.8h0.01M546.3 169.7h0.01M618.5 184.1h0.01M603.3 234.5h0.01" stroke="#36343a" stroke-width="2.8" stroke-linecap="round" opacity="0.25"/><rect x="204" y="264" width="492" height="12" fill="#b8892a" stroke="#141216" stroke-width="3"/><path d="M450 150V264M410 276V388" stroke="#141216" stroke-width="6" fill="none" stroke-linecap="round" stroke-linejoin="round"/><rect x="210" y="150" width="480" height="238" fill="none" stroke="#141216" stroke-width="4"/><path d="M204 150V388M696 150V388" stroke="#36343a" stroke-width="12" fill="none" stroke-linecap="round" stroke-linejoin="round"/><path d="M198 150V388M702 150V388" stroke="#141216" stroke-width="2.4" fill="none" stroke-linecap="round" stroke-linejoin="round"/><path d="M198 158l12 8M690 158l12 8M198 172l12 8M690 172l12 8M198 186l12 8M690 186l12 8M198 200l12 8M690 200l12 8M198 214l12 8M690 214l12 8M198 228l12 8M690 228l12 8M198 242l12 8M690 242l12 8M198 256l12 8M690 256l12 8M198 270l12 8M690 270l12 8M198 284l12 8M690 284l12 8M198 298l12 8M690 298l12 8M198 312l12 8M690 312l12 8M198 326l12 8M690 326l12 8M198 340l12 8M690 340l12 8M198 354l12 8M690 354l12 8M198 368l12 8M690 368l12 8M198 382l12 8M690 382l12 8" stroke="#141216" stroke-width="1.4" fill="none" stroke-linecap="round" stroke-linejoin="round" opacity=".5"/><rect x="232" y="228" width="110" height="28" rx="4" fill="#5a5660" stroke="#141216" stroke-width="2.6"/><path d="M232 256v8M342 256v8" stroke="#141216" stroke-width="4" fill="none" stroke-linecap="round" stroke-linejoin="round"/><rect x="226" y="206" width="14" height="50" rx="3" fill="#b8892a" stroke="#141216" stroke-width="2.4"/><path d="M262 228q20 -26 56 -8q10 4 24 8z" fill="#f3eee4" stroke="#141216" stroke-width="2.4" stroke-linejoin="round"/><circle cx="258" cy="210" r="15" fill="#e6dccb" stroke="#141216" stroke-width="2.6"/><path d="M244 204q14 -18 30 -2q-6 -12 -16 -12q-10 0 -14 14z" fill="#b8892a" stroke="#141216" stroke-width="2"/><circle cx="253" cy="211" r="2.6" fill="#141216"/><circle cx="264" cy="211" r="2.6" fill="#141216"/><ellipse cx="258" cy="219" rx="2.4" ry="2" fill="#141216"/><path d="M270 212L440 170L440 250Z" fill="#d13a2f" opacity=".16"/><rect x="370" y="244" width="24" height="20" fill="#d13a2f" stroke="#141216" stroke-width="2.2"/><rect x="394" y="252" width="18" height="12" fill="#f0cf6b" stroke="#141216" stroke-width="2.2"/><path d="M300 170h40v30h-40z" fill="#1f1d22" stroke="#141216" stroke-width="2.4"/><circle cx="330" cy="180" r="4" fill="#f0cf6b"/><rect x="492" y="222" width="150" height="10" fill="#b8892a" stroke="#141216" stroke-width="2.6"/><path d="M500 232v32M634 232v32" stroke="#141216" stroke-width="4" fill="none" stroke-linecap="round" stroke-linejoin="round"/><rect x="520" y="178" width="66" height="44" rx="3" fill="#141216" stroke="#141216" stroke-width="2.4"/><rect x="526" y="184" width="54" height="32" fill="#5a5660"/><path d="M532 194h30M532 202h40M532 210h22" stroke="#f0cf6b" stroke-width="2" fill="none" stroke-linecap="round" stroke-linejoin="round" opacity=".7"/><path d="M546 222h14v-6h-14z" fill="#141216"/><circle cx="612" cy="216" r="18" fill="#f0cf6b" opacity=".3"/><rect x="602" y="212" width="22" height="10" rx="2" fill="#36343a" stroke="#141216" stroke-width="2"/><rect x="596" y="214" width="7" height="6" fill="#cdbfa4" stroke="#141216" stroke-width="1.4"/><path d="M626 196Q627.6 200.4 632 202Q627.6 203.6 626 208Q624.4 203.6 620 202Q624.4 200.4 626 196z" fill="#f0cf6b" stroke="#141216" stroke-width="0.9" stroke-linejoin="round"/><path d="M656 196v40h-26" fill="none" stroke="#141216" stroke-width="5" stroke-linecap="round"/><path d="M643 236v20M630 258h26" stroke="#141216" stroke-width="4" fill="none" stroke-linecap="round" stroke-linejoin="round"/><circle cx="632" cy="261" r="3" fill="#141216"/><circle cx="654" cy="261" r="3" fill="#141216"/><ellipse cx="310" cy="376" rx="84" ry="10" fill="#8f1d1d" opacity=".5"/><path d="M230 372v14M310 372v14" stroke="#141216" stroke-width="5" fill="none" stroke-linecap="round" stroke-linejoin="round"/><path d="M226 364q-4 -40 16 -44h40q16 0 16 20v24z" fill="#36343a" stroke="#141216" stroke-width="2.6"/><rect x="220" y="346" width="100" height="28" rx="8" fill="#5a5660" stroke="#141216" stroke-width="2.6"/><path d="M300 378q-4 -30 36 -32q38 -2 46 20q2 12 -6 12z" fill="#b8892a" stroke="#141216" stroke-width="2.8"/><circle cx="376" cy="356" r="16" fill="#b8892a" stroke="#141216" stroke-width="2.8"/><path d="M362 348q-10 4 -8 22q8 -2 10 -14z" fill="#8f1d1d" stroke="#141216" stroke-width="2.2"/><path d="M372 356q4 3 8 0" stroke="#141216" stroke-width="2" fill="none" stroke-linecap="round" stroke-linejoin="round"/><ellipse cx="391" cy="360" rx="4" ry="3" fill="#141216"/><path d="M306 372q-14 0 -16 -12" stroke="#141216" stroke-width="5" fill="none" stroke-linecap="round"/><path d="M398 334q4 -6 10 -6M404 324q4 -6 10 -6" stroke="#141216" stroke-width="2" fill="none" opacity=".5"/><rect x="462" y="330" width="218" height="58" fill="#36343a" stroke="#141216" stroke-width="2.6"/><rect x="456" y="322" width="230" height="10" fill="#5a5660" stroke="#141216" stroke-width="2.6"/><path d="M516 340v40M572 340v40M626 340v40" stroke="#141216" stroke-width="2" fill="none" stroke-linecap="round" stroke-linejoin="round" opacity=".6"/><circle cx="506" cy="360" r="3" fill="#b8892a"/><circle cx="582" cy="360" r="3" fill="#b8892a"/><circle cx="616" cy="360" r="3" fill="#b8892a"/><path d="M596 309v14q0 -10 10 -14zM664 309v14q0 -10 -10 -14z" fill="#b8892a" stroke="#141216" stroke-width="2" stroke-linejoin="round"/><rect x="580" y="300" width="96" height="9" fill="#b8892a" stroke="#141216" stroke-width="2.4"/><ellipse cx="640" cy="279.2" rx="25.5" ry="20" fill="#f0cf6b" opacity=".16"/><ellipse cx="641.8" cy="298.3" rx="16.8" ry="3.6" fill="#141216" opacity=".3"/><path d="M625 275.2V295.2A15 4.8 0 0 0 655 295.2V275.2z" fill="#e6dccb" stroke="#141216" stroke-width="2"/><path d="M625 279.6A15 4.8 0 0 0 655 279.6M625 291.6A15 4.8 0 0 0 655 291.6" stroke="#b8892a" stroke-width="2.6" fill="none"/><path d="M630.7 285.4A15 4.8 0 0 0 649.3 285.4V291.4A15 4.8 0 0 1 630.7 291.4z" fill="#f3eee4" stroke="#141216" stroke-width="1.4"/><path d="M634.4 289.4q2.8 -3 5.6 0t5.6 0M636.3 291.2q1.9 -2 3.7 0t3.7 0" stroke="#8f1d1d" stroke-width="1.2" fill="none" stroke-linecap="round"/><path d="M629.2 282V293.2" stroke="#f3eee4" stroke-width="2.1" opacity=".9" stroke-linecap="round"/><path d="M650.8 282V295.2" stroke="#141216" stroke-width="2.4" opacity=".15"/><path d="M622 275.2V270.8A18 4.8 0 0 1 658 270.8V275.2A18 4.8 0 0 1 622 275.2z" fill="#3d5a80" stroke="#141216" stroke-width="2"/><ellipse cx="640" cy="270.8" rx="18" ry="4.8" fill="#6f90b8" stroke="#141216" stroke-width="2"/><ellipse cx="634.8" cy="270.1" rx="4.8" ry="1.5" fill="#f3eee4" opacity=".6"/><path d="M631 273.2v2.2" stroke="#f3eee4" stroke-width="1.5" opacity=".6" stroke-linecap="round"/><path d="M664 277Q665.3 280.7 669 282Q665.3 283.3 664 287Q662.7 283.3 659 282Q662.7 280.7 664 277z" fill="#f0cf6b" stroke="#141216" stroke-width="0.9" stroke-linejoin="round"/><path d="M470 322q0 -24 30 -26q30 -2 40 12l6 14z" fill="#1f1d22" stroke="#141216" stroke-width="2.6"/><circle cx="540" cy="300" r="12" fill="#1f1d22" stroke="#141216" stroke-width="2.6"/><path d="M532 292l2 -12 8 8zM546 290l6 -10 2 12z" fill="#1f1d22" stroke="#141216" stroke-width="2.2" stroke-linejoin="round"/><ellipse cx="544" cy="299" rx="2.4" ry="3" fill="#f0cf6b"/><ellipse cx="536" cy="299" rx="2.4" ry="3" fill="#f0cf6b"/><path d="M470 316q-24 -4 -22 -30" stroke="#141216" stroke-width="5" fill="none" stroke-linecap="round"/><path d="M470 316q-24 -4 -22 -30" stroke="#1f1d22" stroke-width="2.4" fill="none" stroke-linecap="round"/><path d="M552 300L680 262L680 330Z" fill="#d13a2f" opacity=".14"/><ellipse cx="434" cy="381" rx="18" ry="6" fill="#141216"/><path d="M416 376q18 -12 36 0v4q-18 7 -36 0z" fill="#5a5660" stroke="#141216" stroke-width="2.2"/><circle cx="434" cy="372" r="2.4" fill="#d13a2f"/><path d="M450 150C452 166 468 172 470 196C472 244 432 250 440 290C448 312 560 302 612 298" stroke="#b8892a" stroke-width="4" fill="none" stroke-linecap="round" stroke-linejoin="round" stroke-dasharray="1 9"/><g transform="translate(450 134) scale(0.55 0.55)"><path d="M0 -38V-51" stroke="#f0cf6b" stroke-width="1.4" fill="none"/><g opacity="0.8" stroke="#f3eee4" fill="#f3eee4" stroke-linecap="round" stroke-linejoin="round"><path d="M9 -6L22 -12L20.6 6.7L14 22M12 -2L32 -10L33.9 8.7L30 24M13 3L40 -2L45.2 11.2L44 22M10 7L36 8L45.6 17.9L48 26M-9 -6L-22 -12L-20.6 6.7L-14 22M-12 -2L-32 -10L-33.9 8.7L-30 24M-13 3L-40 -2L-45.2 11.2L-44 22M-10 7L-36 8L-45.6 17.9L-48 26" stroke-width="9.4" fill="none"/><ellipse cx="0" cy="-22" rx="21.5" ry="19.5" stroke-width="0"/><ellipse cx="0" cy="0" rx="17" ry="15" stroke-width="0"/></g>
<path d="M9 -6L22 -12L20.6 6.7L14 22M12 -2L32 -10L33.9 8.7L30 24M13 3L40 -2L45.2 11.2L44 22M10 7L36 8L45.6 17.9L48 26M-9 -6L-22 -12L-20.6 6.7L-14 22M-12 -2L-32 -10L-33.9 8.7L-30 24M-13 3L-40 -2L-45.2 11.2L-44 22M-10 7L-36 8L-45.6 17.9L-48 26" stroke="#141216" stroke-width="4.4" fill="none" stroke-linecap="round" stroke-linejoin="round"/>
<path d="M9 -6L22 -12L20.6 6.7L14 22M12 -2L32 -10L33.9 8.7L30 24M13 3L40 -2L45.2 11.2L44 22M10 7L36 8L45.6 17.9L48 26M-9 -6L-22 -12L-20.6 6.7L-14 22M-12 -2L-32 -10L-33.9 8.7L-30 24M-13 3L-40 -2L-45.2 11.2L-44 22M-10 7L-36 8L-45.6 17.9L-48 26" stroke="#36343a" stroke-width="2.2" fill="none" stroke-linecap="round" stroke-linejoin="round"/>
<ellipse cx="0" cy="-22" rx="19" ry="17" fill="#36343a" stroke="#141216" stroke-width="2.2"/>
<ellipse cx="-6.6" cy="-28.8" rx="7.2" ry="4.4" fill="#5a5660" transform="rotate(-25 -6.6 -28.8)"/>
<path d="M-8 -26l8 6 8-6M-6 -18l6 5 6-5" stroke="#f0cf6b" stroke-width="2.2" fill="none" stroke-linecap="round" stroke-linejoin="round"/>
<ellipse cx="0" cy="0" rx="14.5" ry="12.5" fill="#36343a" stroke="#141216" stroke-width="2.2"/>
<path d="M-8 -8q8 -5 16 0" stroke="#5a5660" stroke-width="2" fill="none" stroke-linecap="round"/>
<path d="M-4.5 10.5q-1.5 4 0.5 5.5M4.5 10.5q1.5 4 -0.5 5.5" stroke="#141216" stroke-width="3.2" fill="none" stroke-linecap="round"/>
<path d="M-15.5 -5.5q15.5 -5 31 0l0.5 7q-16 5 -32 0z" fill="#141216"/><path d="M15.5 -3l6 -4M15.5 -1l6 2" stroke="#141216" stroke-width="1.6" stroke-linecap="round"/><circle cx="-10.8" cy="-5.2" r="1.6" fill="#141216"/><circle cx="-10.3" cy="-5.7" r="0.6" fill="#f0cf6b"/><circle cx="10.8" cy="-5.2" r="1.6" fill="#141216"/><circle cx="11.3" cy="-5.7" r="0.6" fill="#f0cf6b"/><circle cx="-3.2" cy="-8.6" r="1.2" fill="#141216"/><circle cx="-2.8" cy="-9" r="0.5" fill="#f0cf6b"/><circle cx="3.2" cy="-8.6" r="1.2" fill="#141216"/><circle cx="3.6" cy="-9" r="0.5" fill="#f0cf6b"/>
<circle cx="-5.6" cy="-0.2" r="5.1" fill="#f3eee4" stroke="#141216" stroke-width="1.3"/><circle cx="-5.6" cy="1.6" r="3" fill="#141216"/><circle cx="-4.5" cy="0.3" r="1.2" fill="#f0cf6b"/><circle cx="5.6" cy="-0.2" r="5.1" fill="#f3eee4" stroke="#141216" stroke-width="1.3"/><circle cx="5.6" cy="1.6" r="3" fill="#141216"/><circle cx="6.7" cy="0.3" r="1.2" fill="#f0cf6b"/><path d="M-3.5 7.2q3.5 3 7 0" stroke="#141216" stroke-width="1.4" fill="none" stroke-linecap="round"/></g><path d="M258 190q-10 -12 -10 -20a10 10 0 0 1 20 0q0 8 -10 20z" fill="#d13a2f" stroke="#141216" stroke-width="2.2"/><circle cx="258" cy="170" r="3.6" fill="#f3eee4"/><path d="M540 280q-10 -12 -10 -20a10 10 0 0 1 20 0q0 8 -10 20z" fill="#d13a2f" stroke="#141216" stroke-width="2.2"/><circle cx="540" cy="260" r="3.6" fill="#f3eee4"/><path d="M376 336q-10 -12 -10 -20a10 10 0 0 1 20 0q0 8 -10 20z" fill="#d13a2f" stroke="#141216" stroke-width="2.2"/><circle cx="376" cy="316" r="3.6" fill="#f3eee4"/><path d="M434 362q-10 -12 -10 -20a10 10 0 0 1 20 0q0 8 -10 20z" fill="#d13a2f" stroke="#141216" stroke-width="2.2"/><circle cx="434" cy="342" r="3.6" fill="#f3eee4"/><path d="M110 388v-60" stroke="#141216" stroke-width="6"/><circle cx="110" cy="300" r="40" fill="#2f7d4f" stroke="#141216" stroke-width="3"/><path d="M92 290q10 -14 26 -12" stroke="#f0cf6b" opacity=".5" stroke-width="4" fill="none" stroke-linecap="round"/><path d="M790 388v-44" stroke="#141216" stroke-width="6"/><circle cx="790" cy="324" r="30" fill="#2f7d4f" stroke="#141216" stroke-width="3"/><circle cx="800" cy="70" r="26" fill="#f3eee4" stroke="#141216" stroke-width="2.4"/><circle cx="792" cy="64" r="5" fill="#e6dccb"/><path d="M140 74Q141.6 78.4 146 80Q141.6 81.6 140 86Q138.4 81.6 134 80Q138.4 78.4 140 74z" fill="#f0cf6b" stroke="#141216" stroke-width="0.9" stroke-linejoin="round"/><path d="M740 116Q741 119 744 120Q741 121 740 124Q739 121 736 120Q739 119 740 116z" fill="#f0cf6b" stroke="#141216" stroke-width="0.9" stroke-linejoin="round"/><path d="M90 166.5Q90.9 169.1 93.5 170Q90.9 170.9 90 173.5Q89.1 170.9 86.5 170Q89.1 169.1 90 166.5z" fill="#f0cf6b" stroke="#141216" stroke-width="0.9" stroke-linejoin="round"/>
</svg>
