<svg xmlns="http://www.w3.org/2000/svg" viewBox="0 0 64 64" width="64" height="64">
  <circle cx="32" cy="32" r="30" fill="#5f2470"/>
  <circle cx="32" cy="32" r="29" fill="none" stroke="#f4ecd8" stroke-width="1.5" opacity="0.65"/>
  <g stroke="#f4ecd8" stroke-width="1.5" fill="none" stroke-linecap="round" opacity="0.95">
    <line x1="32" y1="32" x2="32" y2="8"/>
    <line x1="32" y1="32" x2="49" y2="15"/>
    <line x1="32" y1="32" x2="56" y2="32"/>
    <line x1="32" y1="32" x2="49" y2="49"/>
    <line x1="32" y1="32" x2="32" y2="56"/>
    <line x1="32" y1="32" x2="15" y2="49"/>
    <line x1="32" y1="32" x2="8" y2="32"/>
    <line x1="32" y1="32" x2="15" y2="15"/>
    <path d="M32 17 L43.5 20.5 L47 32 L43.5 43.5 L32 47 L20.5 43.5 L17 32 L20.5 20.5 Z"/>
    <path d="M32 24 L39.5 26.5 L42 32 L39.5 37.5 L32 40 L24.5 37.5 L22 32 L24.5 26.5 Z"/>
  </g>
</svg>
